<svg width="101" height="100" viewBox="0 0 101 100" fill="none" xmlns="http://www.w3.org/2000/svg">
<path d="M31.3281 36.875C31.3281 31.9476 35.3226 27.9531 40.25 27.9531C45.1774 27.9531 49.1719 31.9476 49.1719 36.875C49.1719 41.8024 45.1774 45.7969 40.25 45.7969C35.3226 45.7969 31.3281 41.8024 31.3281 36.875Z" fill="#20C88E" stroke="#6C8F84" stroke-width="0.15625"/>
<path d="M38.0781 42.5C38.0781 37.5726 42.0726 33.5781 47 33.5781C51.9274 33.5781 55.9219 37.5726 55.9219 42.5C55.9219 47.4274 51.9274 51.4219 47 51.4219C42.0726 51.4219 38.0781 47.4274 38.0781 42.5Z" fill="#20C88E" stroke="#6C8F84" stroke-width="0.15625"/>
<g filter="url(#filter0_bi)">
<rect x="36.875" y="33.5" width="29.25" height="29.25" rx="14.625" fill="url(#paint0_linear)"/>
<rect x="36.875" y="33.5" width="29.25" height="29.25" rx="14.625" fill="url(#paint1_radial)"/>
<rect x="37.6562" y="34.2812" width="27.6875" height="27.6875" rx="13.8438" stroke="url(#paint2_linear)" stroke-opacity="0.5" stroke-width="1.5625"/>
</g>
<g filter="url(#filter1_bi)">
<path fill-rule="evenodd" clip-rule="evenodd" d="M93.1253 42.9902C95.9212 42.9902 98.1878 45.2568 98.1878 48.0527C98.1878 60.8753 93.4208 72.5835 85.588 81.3542C81.0754 86.4072 75.538 90.4936 69.2991 93.2547C66.7424 94.3862 63.7524 93.2309 62.6209 90.6741C61.4894 88.1174 62.6447 85.1274 65.2015 83.9959C70.0864 81.834 74.4558 78.619 78.0361 74.61C84.2479 67.6543 88.0628 58.3336 88.0628 48.0527C88.0628 45.2568 90.3293 42.9902 93.1253 42.9902Z" fill="url(#paint3_linear)" fill-opacity="0.5"/>
<path d="M93.1253 43.7721C95.4894 43.7721 97.4059 45.6886 97.4059 48.0527C97.4059 60.679 92.7124 72.2028 85.0048 80.8334C80.5642 85.8058 75.117 89.8249 68.9827 92.5397C66.8208 93.4965 64.2927 92.5195 63.3359 90.3577C62.3791 88.1958 63.356 85.6677 65.5179 84.7109C70.5074 82.5027 74.967 79.2204 78.6193 75.1308C84.9563 68.0349 88.8447 58.5298 88.8447 48.0527C88.8447 45.6886 90.7612 43.7721 93.1253 43.7721Z" stroke="url(#paint4_linear)" stroke-opacity="0.5" stroke-width="1.56375" stroke-linecap="round"/>
</g>
<g filter="url(#filter2_bi)">
<path fill-rule="evenodd" clip-rule="evenodd" d="M50.9673 10.4375C40.8154 10.4375 31.6129 14.5615 24.8931 21.2765C18.0542 28.1106 13.8125 37.6055 13.8125 48.125C13.8125 60.7577 19.9329 71.921 29.3213 78.76C35.4199 83.2025 42.888 85.8125 50.9673 85.8125C53.7632 85.8125 56.0298 88.0791 56.0298 90.875C56.0298 93.6709 53.7632 95.9375 50.9673 95.9375C40.6654 95.9375 31.1242 92.5998 23.3598 86.9438C11.4415 78.262 3.6875 64.0995 3.6875 48.125C3.6875 34.8295 9.06113 22.7835 17.7362 14.1145C26.2636 5.5931 38.0055 0.3125 50.9673 0.3125C66.0552 0.3125 79.4777 7.46332 88.1179 18.5485C89.8367 20.7537 89.4424 23.9348 87.2372 25.6536C85.032 27.3724 81.8509 26.9781 80.1321 24.7729C73.3098 16.0201 62.7743 10.4375 50.9673 10.4375Z" fill="url(#paint5_linear)" fill-opacity="0.5"/>
<path d="M50.9673 9.65563C40.5985 9.65563 31.1998 13.8689 24.3405 20.7234C17.3597 27.6993 13.0306 37.3912 13.0306 48.125C13.0306 61.0157 19.2771 72.4106 28.8609 79.392C35.0882 83.9282 42.7164 86.5944 50.9673 86.5944C53.3314 86.5944 55.2479 88.5109 55.2479 90.875C55.2479 93.2391 53.3314 95.1556 50.9673 95.1556C40.8371 95.1556 31.4559 91.8742 23.8201 86.3119C12.0972 77.7723 4.46938 63.8414 4.46938 48.125C4.46938 35.0439 9.75557 23.1949 18.2889 14.6676C26.6767 6.28561 38.2225 1.09438 50.9673 1.09438C65.8018 1.09438 79.0013 8.124 87.5012 19.0292C88.9546 20.8938 88.6212 23.5836 86.7565 25.0369C84.8919 26.4903 82.2022 26.1569 80.7488 24.2922C73.786 15.3592 63.0275 9.65563 50.9673 9.65563Z" stroke="url(#paint6_linear)" stroke-opacity="0.5" stroke-width="1.56375" stroke-linecap="round"/>
</g>
<g filter="url(#filter3_bi)">
<path fill-rule="evenodd" clip-rule="evenodd" d="M46.4375 21.125C46.4375 18.3291 48.7041 16.0625 51.5 16.0625C69.2076 16.0625 83.5625 30.4174 83.5625 48.125C83.5625 65.8326 69.2076 80.1875 51.5 80.1875C33.7924 80.1875 19.4375 65.8326 19.4375 48.125C19.4375 45.3291 21.7041 43.0625 24.5 43.0625C27.2959 43.0625 29.5625 45.3291 29.5625 48.125C29.5625 60.2407 39.3843 70.0625 51.5 70.0625C63.6157 70.0625 73.4375 60.2407 73.4375 48.125C73.4375 36.0093 63.6157 26.1875 51.5 26.1875C48.7041 26.1875 46.4375 23.9209 46.4375 21.125Z" fill="url(#paint7_linear)" fill-opacity="0.5"/>
<path d="M47.2194 21.125C47.2194 18.7609 49.1359 16.8444 51.5 16.8444C68.7758 16.8444 82.7806 30.8492 82.7806 48.125C82.7806 65.4008 68.7758 79.4056 51.5 79.4056C34.2242 79.4056 20.2194 65.4008 20.2194 48.125C20.2194 45.7609 22.1359 43.8444 24.5 43.8444C26.8641 43.8444 28.7806 45.7609 28.7806 48.125C28.7806 60.6726 38.9524 70.8444 51.5 70.8444C64.0476 70.8444 74.2194 60.6726 74.2194 48.125C74.2194 35.5774 64.0476 25.4056 51.5 25.4056C49.1359 25.4056 47.2194 23.4891 47.2194 21.125Z" stroke="url(#paint8_linear)" stroke-opacity="0.5" stroke-width="1.56375" stroke-linecap="round"/>
</g>
<defs>
<filter id="filter0_bi" x="21.25" y="17.875" width="60.5" height="60.5" filterUnits="userSpaceOnUse" color-interpolation-filters="sRGB">
<feFlood flood-opacity="0" result="BackgroundImageFix"/>
<feGaussianBlur in="BackgroundImage" stdDeviation="7.8125"/>
<feComposite in2="SourceAlpha" operator="in" result="effect1_backgroundBlur"/>
<feBlend mode="normal" in="SourceGraphic" in2="effect1_backgroundBlur" result="shape"/>
<feColorMatrix in="SourceAlpha" type="matrix" values="0 0 0 0 0 0 0 0 0 0 0 0 0 0 0 0 0 0 127 0" result="hardAlpha"/>
<feOffset dy="3.125"/>
<feGaussianBlur stdDeviation="1.5625"/>
<feComposite in2="hardAlpha" operator="arithmetic" k2="-1" k3="1"/>
<feColorMatrix type="matrix" values="0 0 0 0 1 0 0 0 0 1 0 0 0 0 1 0 0 0 0.15 0"/>
<feBlend mode="normal" in2="shape" result="effect2_innerShadow"/>
</filter>
<filter id="filter1_bi" x="46.5615" y="27.3652" width="67.2513" height="81.9488" filterUnits="userSpaceOnUse" color-interpolation-filters="sRGB">
<feFlood flood-opacity="0" result="BackgroundImageFix"/>
<feGaussianBlur in="BackgroundImage" stdDeviation="7.8125"/>
<feComposite in2="SourceAlpha" operator="in" result="effect1_backgroundBlur"/>
<feBlend mode="normal" in="SourceGraphic" in2="effect1_backgroundBlur" result="shape"/>
<feColorMatrix in="SourceAlpha" type="matrix" values="0 0 0 0 0 0 0 0 0 0 0 0 0 0 0 0 0 0 127 0" result="hardAlpha"/>
<feOffset dy="3.125"/>
<feGaussianBlur stdDeviation="1.5625"/>
<feComposite in2="hardAlpha" operator="arithmetic" k2="-1" k3="1"/>
<feColorMatrix type="matrix" values="0 0 0 0 1 0 0 0 0 1 0 0 0 0 1 0 0 0 0.15 0"/>
<feBlend mode="normal" in2="shape" result="effect2_innerShadow"/>
</filter>
<filter id="filter2_bi" x="-11.9375" y="-15.3125" width="116.75" height="126.875" filterUnits="userSpaceOnUse" color-interpolation-filters="sRGB">
<feFlood flood-opacity="0" result="BackgroundImageFix"/>
<feGaussianBlur in="BackgroundImage" stdDeviation="7.8125"/>
<feComposite in2="SourceAlpha" operator="in" result="effect1_backgroundBlur"/>
<feBlend mode="normal" in="SourceGraphic" in2="effect1_backgroundBlur" result="shape"/>
<feColorMatrix in="SourceAlpha" type="matrix" values="0 0 0 0 0 0 0 0 0 0 0 0 0 0 0 0 0 0 127 0" result="hardAlpha"/>
<feOffset dy="3.125"/>
<feGaussianBlur stdDeviation="1.5625"/>
<feComposite in2="hardAlpha" operator="arithmetic" k2="-1" k3="1"/>
<feColorMatrix type="matrix" values="0 0 0 0 1 0 0 0 0 1 0 0 0 0 1 0 0 0 0.15 0"/>
<feBlend mode="normal" in2="shape" result="effect2_innerShadow"/>
</filter>
<filter id="filter3_bi" x="3.8125" y="0.437501" width="95.375" height="95.375" filterUnits="userSpaceOnUse" color-interpolation-filters="sRGB">
<feFlood flood-opacity="0" result="BackgroundImageFix"/>
<feGaussianBlur in="BackgroundImage" stdDeviation="7.8125"/>
<feComposite in2="SourceAlpha" operator="in" result="effect1_backgroundBlur"/>
<feBlend mode="normal" in="SourceGraphic" in2="effect1_backgroundBlur" result="shape"/>
<feColorMatrix in="SourceAlpha" type="matrix" values="0 0 0 0 0 0 0 0 0 0 0 0 0 0 0 0 0 0 127 0" result="hardAlpha"/>
<feOffset dy="3.125"/>
<feGaussianBlur stdDeviation="1.5625"/>
<feComposite in2="hardAlpha" operator="arithmetic" k2="-1" k3="1"/>
<feColorMatrix type="matrix" values="0 0 0 0 1 0 0 0 0 1 0 0 0 0 1 0 0 0 0.15 0"/>
<feBlend mode="normal" in2="shape" result="effect2_innerShadow"/>
</filter>
<linearGradient id="paint0_linear" x1="51.5" y1="33.5" x2="51.5" y2="62.75" gradientUnits="userSpaceOnUse">
<stop stop-color="#238355" stop-opacity="0.25"/>
<stop offset="0.557292" stop-color="#2B8459" stop-opacity="0.26"/>
<stop offset="1" stop-color="#575656" stop-opacity="0.18"/>
</linearGradient>
<radialGradient id="paint1_radial" cx="0" cy="0" r="1" gradientUnits="userSpaceOnUse" gradientTransform="translate(51.5 48.125) rotate(90) scale(14.625 18.8714)">
<stop stop-color="#202426" stop-opacity="0.49"/>
<stop offset="1" stop-color="#202426" stop-opacity="0.15"/>
</radialGradient>
<linearGradient id="paint2_linear" x1="51.5" y1="33.5" x2="51.5" y2="62.75" gradientUnits="userSpaceOnUse">
<stop stop-color="#32FC8F" stop-opacity="0.61"/>
<stop offset="0.505208" stop-color="white" stop-opacity="0.1"/>
<stop offset="1" stop-color="white" stop-opacity="0.1"/>
</linearGradient>
<linearGradient id="paint3_linear" x1="50.5076" y1="3.9463" x2="50.5076" y2="92.1591" gradientUnits="userSpaceOnUse">
<stop stop-color="#32FC8F" stop-opacity="0.61"/>
<stop offset="0.505208" stop-color="white" stop-opacity="0.1"/>
<stop offset="1" stop-color="white" stop-opacity="0.1"/>
</linearGradient>
<linearGradient id="paint4_linear" x1="80.1872" y1="42.9902" x2="76.2501" y2="97.6253" gradientUnits="userSpaceOnUse">
<stop stop-color="#0CEC9B" stop-opacity="0.55"/>
<stop offset="0.505208" stop-color="#09E395" stop-opacity="0.21"/>
<stop offset="1" stop-color="white" stop-opacity="0"/>
</linearGradient>
<linearGradient id="paint5_linear" x1="50.9673" y1="5.375" x2="50.9673" y2="90.875" gradientUnits="userSpaceOnUse">
<stop stop-color="#32FC8F" stop-opacity="0.61"/>
<stop offset="0.505208" stop-color="white" stop-opacity="0.1"/>
<stop offset="1" stop-color="white" stop-opacity="0.1"/>
</linearGradient>
<linearGradient id="paint6_linear" x1="68.375" y1="8.1875" x2="17.75" y2="80.1875" gradientUnits="userSpaceOnUse">
<stop stop-color="#0CEC9B" stop-opacity="0.55"/>
<stop offset="0.505208" stop-color="#09E395" stop-opacity="0.21"/>
<stop offset="1" stop-color="white" stop-opacity="0"/>
</linearGradient>
<linearGradient id="paint7_linear" x1="51.5" y1="21.125" x2="51.5" y2="75.125" gradientUnits="userSpaceOnUse">
<stop stop-color="#32FC8F" stop-opacity="0.61"/>
<stop offset="0.505208" stop-color="white" stop-opacity="0.1"/>
<stop offset="1" stop-color="white" stop-opacity="0.1"/>
</linearGradient>
<linearGradient id="paint8_linear" x1="56.5625" y1="14.9375" x2="36.875" y2="80.1875" gradientUnits="userSpaceOnUse">
<stop stop-color="#0CEC9B" stop-opacity="0.55"/>
<stop offset="0.505208" stop-color="#09E395" stop-opacity="0.21"/>
<stop offset="0.947776" stop-color="#E5FCF4" stop-opacity="0.0221648"/>
<stop offset="1" stop-color="white" stop-opacity="0"/>
</linearGradient>
</defs>
</svg>
