<svg width="153" height="24" viewBox="0 0 153 24" fill="none" xmlns="http://www.w3.org/2000/svg">
<circle opacity="0.5" cx="12" cy="12" r="12" fill="#EFF6FF"/>
<path d="M45.8483 19H55.2883V16H49.1283V5H45.8483V19ZM55.9268 12C55.9268 17.1 58.3668 19.28 62.8868 19.28C67.3868 19.28 69.7668 17.26 69.7668 12C69.7668 6.94 67.8868 4.72 62.8868 4.72C58.1668 4.72 55.9268 6.92 55.9268 12ZM59.4068 12.02C59.4068 8.76 60.5068 7.56 62.8068 7.56C65.1268 7.56 66.3068 8.58 66.3068 12.02C66.3068 15.44 65.1268 16.44 62.9468 16.44C60.7668 16.44 59.4068 15.5 59.4068 12.02ZM78.5861 13.74H81.1261V16.18C80.6461 16.3 80.0461 16.44 79.1461 16.44C76.4061 16.44 75.1661 15.2 75.1661 11.94C75.1661 8.82 76.3261 7.56 79.4261 7.56C80.8861 7.56 82.0861 7.92 83.0461 8.5V5.36C82.4061 5.08 81.1661 4.74 79.2061 4.74C73.8861 4.74 71.7861 7.08 71.7861 12.12C71.7861 17.1 74.0061 19.26 78.8861 19.26C81.2461 19.26 83.1061 18.66 83.9861 18.2V11.1H78.5861V13.74ZM86.1221 12C86.1221 17.1 88.5621 19.28 93.0821 19.28C97.5821 19.28 99.9621 17.26 99.9621 12C99.9621 6.94 98.0821 4.72 93.0821 4.72C88.3621 4.72 86.1221 6.92 86.1221 12ZM89.6021 12.02C89.6021 8.76 90.7021 7.56 93.0021 7.56C95.3221 7.56 96.5021 8.58 96.5021 12.02C96.5021 15.44 95.3221 16.44 93.1421 16.44C90.9621 16.44 89.6021 15.5 89.6021 12.02ZM105.191 19H108.451V7.82H112.491V5H101.151V7.82H105.191V19ZM118.6 19H121.88V13.96L126.68 5H122.96L120.28 10.34L117.5 5H113.76L118.6 13.96V19ZM128.7 19H131.98V15.02C132.5 15.06 132.9 15.08 133.42 15.08C137.66 15.08 139.52 13.42 139.52 9.8C139.52 6.24 137.88 4.9 133.46 4.9C131.4 4.9 130.44 4.96 128.7 5.04V19ZM131.98 12.32V7.66C132.5 7.6 132.86 7.6 133.4 7.6C135.56 7.6 136.14 8.36 136.14 9.96C136.14 11.58 135.46 12.38 133.42 12.38C132.86 12.38 132.52 12.36 131.98 12.32ZM142.235 19H151.995V16.16H145.515V13.24H151.215V10.6H145.515V7.84H151.995V5H142.235V19Z" fill="#EFF6FF"/>
</svg>
