<svg width="28" height="22" viewBox="0 0 28 22" fill="none" xmlns="http://www.w3.org/2000/svg">
<g opacity="0.54">
<path fill-rule="evenodd" clip-rule="evenodd" d="M21.0775 11.5507H21.095H21.1288H21.1625H21.1963H21.2301H21.2639H21.2977H21.3314H21.3652H21.399H21.4328H21.4666H21.5003H21.5341H21.5679H21.6017H21.6354H21.6692H21.703H21.7368H21.7706H21.8043H21.8381H21.8719H21.9057H21.9394H21.9732H22.007H22.0408H22.0746H22.1083H22.1421H22.1759H22.2097H22.2435H22.2772H22.311H22.3448H22.3786H22.4123H22.4461H22.4799H22.5137H22.5475H22.5812H22.615H22.6488H22.6826H22.7163H22.7501H22.7839H22.8177H22.8514H22.8852H22.919H22.9528H22.9865H23.0203H23.0541H23.0879H23.116L23.1217 11.5509C23.1321 11.5511 23.1435 11.5516 23.1554 11.5523C23.1663 11.5528 23.1776 11.5536 23.1892 11.5545C23.2003 11.5553 23.2117 11.5562 23.223 11.5573C23.2344 11.5583 23.2457 11.5595 23.2568 11.5607C23.2684 11.562 23.2798 11.5633 23.2905 11.5648C23.3026 11.5664 23.314 11.5681 23.3243 11.5699C23.3318 11.5711 23.3386 11.5724 23.3447 11.5737L23.3581 11.5768C23.3694 11.5794 23.3807 11.5822 23.3919 11.5854C23.4032 11.5885 23.4145 11.5918 23.4257 11.5954C23.437 11.599 23.4483 11.6028 23.4594 11.6069C23.4708 11.611 23.482 11.6153 23.4932 11.6199C23.5046 11.6246 23.5158 11.6295 23.527 11.6345C23.5384 11.6398 23.5496 11.6452 23.5608 11.6508C23.5721 11.6566 23.5834 11.6627 23.5945 11.6689C23.6059 11.6753 23.6172 11.6821 23.6283 11.689C23.6397 11.6961 23.651 11.7034 23.6621 11.711C23.6735 11.7189 23.6848 11.7269 23.6959 11.7353C23.7073 11.7439 23.7186 11.7528 23.7297 11.7621C23.7411 11.7716 23.7524 11.7815 23.7634 11.7917C23.775 11.8023 23.7863 11.8131 23.7972 11.8243C23.8088 11.8361 23.82 11.8483 23.831 11.8607C23.8426 11.874 23.8539 11.8876 23.8648 11.9016C23.8765 11.9166 23.8878 11.932 23.8986 11.9479C23.9104 11.9652 23.9217 11.983 23.9323 12.0013C23.9444 12.0219 23.9556 12.0432 23.9661 12.0649C23.9785 12.0908 23.9898 12.1174 23.9999 12.1447C24.0134 12.1815 24.0247 12.2196 24.0337 12.2589C24.0491 12.3271 24.0574 12.3989 24.0574 12.4739C24.0574 12.5493 24.0491 12.6214 24.0337 12.6898C24.0247 12.7292 24.0134 12.7675 23.9999 12.8043C23.9898 12.8317 23.9785 12.8583 23.9661 12.8842C23.9556 12.906 23.9444 12.9273 23.9323 12.9479C23.9217 12.9662 23.9104 12.984 23.8986 13.0014C23.8878 13.0172 23.8765 13.0327 23.8648 13.0477C23.8539 13.0617 23.8426 13.0753 23.831 13.0885C23.82 13.101 23.8088 13.1131 23.7972 13.1249C23.7863 13.1361 23.7749 13.147 23.7634 13.1575C23.7524 13.1677 23.7411 13.1775 23.7297 13.187C23.7186 13.1962 23.7074 13.2051 23.6959 13.2137C23.6848 13.2221 23.6735 13.2301 23.6621 13.2379C23.651 13.2455 23.6397 13.2528 23.6283 13.2599C23.6172 13.2667 23.6059 13.2734 23.5945 13.2798C23.5834 13.286 23.5722 13.292 23.5608 13.2978C23.5496 13.3034 23.5384 13.3088 23.527 13.314C23.5158 13.3191 23.5046 13.3239 23.4932 13.3285C23.482 13.333 23.4708 13.3373 23.4594 13.3414C23.4483 13.3454 23.437 13.3492 23.4257 13.3527C23.4145 13.3563 23.4032 13.3595 23.3919 13.3626C23.3807 13.3656 23.3694 13.3685 23.3581 13.3711L23.3447 13.3741C23.3386 13.3755 23.3318 13.3768 23.3243 13.3782C23.314 13.38 23.3026 13.3817 23.2905 13.3834C23.2798 13.3848 23.2684 13.3862 23.2568 13.3875C23.2457 13.3887 23.2344 13.3899 23.223 13.3909C23.2117 13.3919 23.2003 13.3928 23.1892 13.3936C23.1776 13.3945 23.1663 13.3952 23.1554 13.3957C23.1435 13.3964 23.1321 13.3968 23.1217 13.3971L23.1036 13.3973H23.0879H23.0541H23.0203H22.9865H22.9528H22.919H22.8852H22.8514H22.8177H22.7839H22.7501H22.7163H22.6826H22.6488H22.615H22.5812H22.5475H22.5137H22.4799H22.4461H22.4123H22.3786H22.3448H22.311H22.2772H22.2435H22.2097H22.1759H22.1421H22.1083H22.0746H22.0408H22.007H21.9732H21.9394H21.9057H21.8719H21.8381H21.8043H21.7706H21.7368H21.703H21.6692H21.6354H21.6017H21.5679H21.5341H21.5003H21.4666H21.4328H21.399H21.3652H21.3314H21.2977H21.2639H21.2301H21.1963H21.1625H21.1288H21.095H21.0775V11.5507ZM23.7973 9.46086C23.8109 9.52285 23.8182 9.58848 23.8182 9.65761C23.8182 9.72663 23.8109 9.79224 23.7973 9.85417C23.7886 9.89396 23.7773 9.93221 23.7635 9.96889C23.7535 9.99566 23.7422 10.0216 23.7298 10.0466C23.7193 10.0675 23.708 10.0879 23.696 10.1076C23.6853 10.125 23.674 10.1419 23.6622 10.1583C23.6514 10.1733 23.6401 10.1878 23.6284 10.2018C23.6176 10.215 23.6063 10.2277 23.5947 10.24C23.5837 10.2516 23.5725 10.2628 23.5609 10.2737C23.5499 10.2841 23.5386 10.2941 23.5271 10.3039C23.5161 10.3131 23.5048 10.3221 23.4933 10.3308C23.4823 10.3392 23.471 10.3473 23.4596 10.3552C23.4485 10.3627 23.4372 10.37 23.4258 10.377C23.4147 10.3839 23.4034 10.3905 23.392 10.3968C23.3809 10.4029 23.3696 10.4089 23.3582 10.4145C23.3471 10.4201 23.3358 10.4253 23.3245 10.4304C23.3133 10.4354 23.302 10.4401 23.2907 10.4446C23.2795 10.4489 23.2683 10.4531 23.2569 10.4571C23.2457 10.461 23.2345 10.4646 23.2231 10.468C23.2119 10.4714 23.2007 10.4746 23.1893 10.4776C23.1782 10.4805 23.1669 10.4832 23.1556 10.4856C23.1444 10.4881 23.1331 10.4903 23.1218 10.4923L23.1136 10.4938C23.107 10.4949 23.0983 10.4962 23.088 10.4975C23.0781 10.4988 23.0666 10.5001 23.0543 10.5013C23.0436 10.5024 23.0322 10.5035 23.0205 10.5044C23.0094 10.5054 22.9981 10.5062 22.9867 10.5069C22.9753 10.5076 22.964 10.5083 22.9529 10.5087C22.9412 10.5092 22.9298 10.5095 22.9192 10.5095L22.9138 10.5096H22.8854H22.8516H22.8178H22.7841H22.7503H22.7165H22.6827H22.649H22.6152H22.5814H22.5476H22.5138H22.4801H22.4463H22.4125H22.3787H22.345H22.3112H22.2774H22.2436H22.2099H22.1761H22.1423H22.1085H22.0747H22.041H22.0072H21.9734H21.9396H21.9059H21.8721H21.8383H21.8045H21.7708H21.737H21.7032H21.6694H21.6357H21.6019H21.5681H21.5343H21.5005H21.4668H21.433H21.3992H21.3654H21.3317H21.2979H21.2641H21.2303H21.1966H21.1628H21.129H21.0952H21.0775V8.80557H21.0952H21.129H21.1628H21.1966H21.2303H21.2641H21.2979H21.3317H21.3654H21.3992H21.433H21.4668H21.5005H21.5343H21.5681H21.6019H21.6357H21.6694H21.7032H21.737H21.7708H21.8045H21.8383H21.8721H21.9059H21.9396H21.9734H22.0072H22.041H22.0747H22.1085H22.1423H22.1761H22.2099H22.2436H22.2774H22.3112H22.345H22.3787H22.4125H22.4463H22.4801H22.5138H22.5476H22.5814H22.6152H22.649H22.6827H22.7165H22.7503H22.7841H22.8178H22.8516H22.8854H22.9192H22.9334L22.9529 8.80622C22.964 8.80667 22.9753 8.80734 22.9867 8.80807C22.9981 8.80879 23.0094 8.80964 23.0205 8.81053C23.0322 8.81148 23.0436 8.81255 23.0543 8.81358C23.0666 8.81479 23.0781 8.81599 23.088 8.81714C23.0983 8.81832 23.107 8.81943 23.1136 8.82036L23.1218 8.82184C23.1331 8.82389 23.1444 8.82615 23.1556 8.82865C23.1669 8.83114 23.1782 8.83385 23.1893 8.83679C23.2007 8.83979 23.2119 8.84296 23.2231 8.84637C23.2345 8.84984 23.2457 8.85354 23.2569 8.85743C23.2683 8.86141 23.2795 8.86561 23.2907 8.87003C23.302 8.87454 23.3133 8.8793 23.3245 8.88426C23.3358 8.88935 23.3471 8.89464 23.3582 8.90019C23.3696 8.90587 23.3809 8.91178 23.392 8.91794C23.4034 8.92427 23.4147 8.93087 23.4258 8.93771C23.4372 8.94473 23.4485 8.95201 23.4596 8.9596C23.471 8.96741 23.4823 8.97559 23.4933 8.98399C23.5048 8.9927 23.5161 9.00169 23.5271 9.01098C23.5386 9.02073 23.5499 9.03078 23.5609 9.04114C23.5725 9.05203 23.5837 9.06326 23.5947 9.07485C23.6063 9.08717 23.6176 9.09991 23.6284 9.11301C23.6401 9.1271 23.6514 9.14163 23.6622 9.15658C23.674 9.17299 23.6853 9.18987 23.696 9.20732C23.708 9.227 23.7193 9.24736 23.7298 9.26833C23.7422 9.29333 23.7535 9.31929 23.7635 9.34606C23.7773 9.38274 23.7886 9.42101 23.7973 9.46086ZM27.9862 0.625H28.0001L28 18.1255C28 18.23 27.9952 18.3335 27.9862 18.4357C27.9783 18.5257 27.967 18.6147 27.9524 18.7025C27.9426 18.7616 27.9314 18.8201 27.9187 18.8781C27.9083 18.9253 27.8971 18.9722 27.8849 19.0186C27.8743 19.0587 27.863 19.0985 27.8511 19.138C27.8403 19.1738 27.8292 19.2093 27.8173 19.2446C27.8065 19.2765 27.7952 19.3082 27.7835 19.3398C27.7727 19.3691 27.7613 19.3983 27.7497 19.4273C27.7388 19.4546 27.7276 19.4816 27.716 19.5085C27.705 19.534 27.6937 19.5593 27.6822 19.5845C27.6712 19.6085 27.6599 19.6323 27.6484 19.656C27.6373 19.6787 27.6261 19.7013 27.6146 19.7237C27.6036 19.7451 27.5923 19.7665 27.5808 19.7877C27.5698 19.8082 27.5585 19.8283 27.547 19.8485C27.536 19.868 27.5247 19.8874 27.5133 19.9067C27.5022 19.9254 27.4909 19.9441 27.4795 19.9626C27.4683 19.9806 27.4571 19.9986 27.4457 20.0165C27.4346 20.0337 27.4233 20.0508 27.4119 20.0679C27.4008 20.0845 27.3895 20.1009 27.3781 20.1173C27.367 20.1334 27.3557 20.1494 27.3443 20.1653C27.3332 20.1808 27.3219 20.1963 27.3106 20.2116C27.2994 20.2266 27.2881 20.2413 27.2768 20.2561C27.2656 20.2706 27.2544 20.2851 27.243 20.2995C27.2318 20.3135 27.2206 20.3275 27.2092 20.3414C27.198 20.355 27.1867 20.3685 27.1754 20.3819C27.1642 20.3951 27.153 20.4085 27.1416 20.4216C27.1305 20.4344 27.1192 20.447 27.1079 20.4596C27.0967 20.4721 27.0854 20.4845 27.0741 20.4968C27.0629 20.509 27.0517 20.5211 27.0403 20.5331C27.0292 20.5449 27.0178 20.5564 27.0065 20.568C26.9953 20.5796 26.9841 20.5912 26.9727 20.6025C26.9616 20.6137 26.9502 20.6245 26.9389 20.6355C26.9277 20.6464 26.9165 20.6573 26.9051 20.6681C26.894 20.6786 26.8827 20.6891 26.8714 20.6995C26.8602 20.7098 26.8489 20.7201 26.8376 20.7303C26.8264 20.7403 26.8151 20.7503 26.8038 20.7602C26.7926 20.77 26.7813 20.7797 26.77 20.7894C26.7588 20.799 26.7476 20.8085 26.7362 20.8179C26.7251 20.8272 26.7138 20.8364 26.7024 20.8455C26.6912 20.8546 26.68 20.8637 26.6687 20.8727C26.6575 20.8816 26.6462 20.8902 26.6349 20.8989C26.6237 20.9076 26.6125 20.9163 26.6011 20.9248C26.5899 20.9332 26.5786 20.9414 26.5673 20.9497C26.5561 20.958 26.5449 20.9663 26.5335 20.9744C26.5224 20.9824 26.511 20.9902 26.4998 20.9981C26.4885 21.0059 26.4773 21.0138 26.466 21.0215C26.4548 21.0291 26.4435 21.0365 26.4322 21.044C26.421 21.0515 26.4097 21.059 26.3984 21.0663C26.3872 21.0736 26.3759 21.0807 26.3646 21.0878C26.3534 21.0949 26.3421 21.1019 26.3308 21.1089C26.3196 21.1158 26.3084 21.1226 26.2971 21.1294L26.2633 21.1493C26.252 21.1559 26.2408 21.1625 26.2295 21.1689C26.2183 21.1753 26.207 21.1815 26.1957 21.1878C26.1844 21.194 26.1732 21.2003 26.1619 21.2064C26.1507 21.2125 26.1394 21.2183 26.1281 21.2243C26.1169 21.2302 26.1057 21.2363 26.0943 21.2421C26.0832 21.2479 26.0718 21.2533 26.0606 21.2589C26.0493 21.2646 26.0381 21.2702 26.0268 21.2757C26.0156 21.2811 26.0043 21.2865 25.993 21.2918L25.9592 21.3076L25.9254 21.3229C25.9142 21.3279 25.9029 21.3328 25.8917 21.3377C25.8804 21.3425 25.8692 21.3476 25.8579 21.3523C25.8467 21.3571 25.8354 21.3615 25.8241 21.3661C25.8128 21.3707 25.8016 21.3754 25.7903 21.3799C25.7791 21.3844 25.7678 21.3886 25.7565 21.3929C25.7453 21.3973 25.7341 21.4016 25.7228 21.4058L25.689 21.4182C25.6777 21.4223 25.6664 21.4262 25.6552 21.4301C25.6439 21.4341 25.6327 21.4382 25.6214 21.442C25.6102 21.4458 25.5989 21.4493 25.5876 21.453L25.5538 21.4639C25.5426 21.4675 25.5313 21.4709 25.52 21.4743L25.4863 21.4844C25.475 21.4877 25.4638 21.4911 25.4525 21.4943C25.4413 21.4974 25.43 21.5004 25.4187 21.5034C25.4075 21.5065 25.3962 21.5096 25.3849 21.5126L25.3511 21.5211L25.3173 21.5293L25.2836 21.5374C25.2723 21.5399 25.2611 21.5423 25.2498 21.5447C25.2385 21.5472 25.2273 21.5497 25.216 21.5521L25.1822 21.5588L25.1484 21.5653C25.1372 21.5674 25.1259 21.5697 25.1147 21.5717C25.1034 21.5737 25.0921 21.5754 25.0809 21.5773L25.0471 21.5829L25.0133 21.5879L24.9795 21.5927C24.9682 21.5942 24.957 21.5959 24.9457 21.5974C24.9345 21.5988 24.9232 21.6 24.912 21.6013C24.9007 21.6026 24.8895 21.6039 24.8782 21.6051C24.8669 21.6063 24.8557 21.6076 24.8444 21.6087C24.8332 21.6098 24.8219 21.6107 24.8106 21.6117C24.7993 21.6126 24.7881 21.6138 24.7768 21.6147C24.7656 21.6155 24.7543 21.6162 24.743 21.617L24.7092 21.6191C24.698 21.6198 24.6868 21.6206 24.6755 21.6212C24.6642 21.6217 24.6529 21.622 24.6417 21.6225L24.6079 21.6238L24.5741 21.6246C24.5629 21.6249 24.5516 21.6249 24.5403 21.6251L24.5066 21.6255L24.4996 21.6256H24.4728H24.439H24.4052H24.3714H24.3376H24.3039H24.2701H24.2363H24.2025H24.1687H24.1349H24.1012H24.0674H24.0336H23.9998H23.966H23.9322H23.8984H23.8647H23.8309H23.7971H23.7633H23.7296H23.6958H23.662H23.6282H23.5944H23.5606H23.5268H23.4931H23.4593H23.4255H23.3917H23.3579H23.3241H23.2904H23.2566H23.2228H23.189H23.1552H23.1214H23.0877H23.0539H23.0201H22.9863H22.9525H22.9188H22.885H22.8512H22.8174H22.7836H22.7498H22.7161H22.6823H22.6485H22.6147H22.5809H22.5471H22.5133H22.4796H22.4458H22.412H22.3782H22.3445H22.3107H22.2769H22.2431H22.2093H22.1755H22.1417H22.108H22.0742H22.0404H22.0066H21.9728H21.939H21.9053H21.8715H21.8377H21.8039H21.7701H21.7363H21.7026H21.6688H21.635H21.6012H21.5674H21.5337H21.4999H21.4661H21.4323H21.3985H21.3647H21.3309H21.2972H21.2634H21.2296H21.1958H21.162H21.1282H21.0945H21.0607H21.0269H20.9931H20.9594H20.9256H20.8918H20.858H20.8242H20.7904H20.7566H20.7229H20.6891H20.6553H20.6215H20.5877H20.5539H20.5202H20.4864H20.4526H20.4188H20.385H20.3512H20.3175H20.2837H20.2499H20.2161H20.1823H20.1486H20.1148H20.081H20.0472H20.0134H19.9796H19.9458H19.9121H19.8783H19.8445H19.8107H19.7769H19.7431H19.7094H19.6756H19.6418H19.608H19.5742H19.5405H19.5067H19.4729H19.4391H19.3662V14.49H19.4391H19.4729H19.5067H19.5405H19.5742H19.608H19.6418H19.6756H19.7094H19.7431H19.7769H19.8107H19.8445H19.8783H19.9121H19.9458H19.9796H20.0134H20.0472H20.081H20.1148H20.1486H20.1823H20.2161H20.2499H20.2837H20.3175H20.3512H20.385H20.4188H20.4526H20.4864H20.5202H20.5539H20.5877H20.6215H20.6553H20.6891H20.7229H20.7566H20.7904H20.8242H20.858H20.8918H20.9256H20.9594H20.9931H21.0269H21.0607H21.0945H21.1282H21.162H21.1958H21.2296H21.2634H21.2972H21.3309H21.3647H21.3985H21.4323H21.4661H21.4999H21.5337H21.5674H21.6012H21.635H21.6688H21.7026H21.7363H21.7701H21.8039H21.8377H21.8715H21.9053H21.939H21.9728H22.0066H22.0404H22.0742H22.108H22.1417H22.1755H22.2093H22.2431H22.2769H22.3107H22.3445H22.3782H22.412H22.4458H22.4796H22.5133H22.5471H22.5809H22.6147H22.6485H22.6823H22.7161H22.7498H22.7836H22.8174H22.8512H22.885H22.9188H22.9525H22.9863H23.0201H23.0539H23.0877H23.1214H23.1552H23.189H23.2228H23.2566H23.2904H23.3241H23.3579H23.3917H23.4255H23.4593H23.4931H23.5268H23.5606H23.5944H23.6282H23.662H23.6958H23.7296H23.7633H23.7971H23.8309H23.8647H23.8984H23.9322H23.966H23.9998H24.0336H24.0674H24.1012H24.1349H24.1687H24.2025H24.2363H24.2701H24.3039H24.3376H24.3714H24.4052H24.439H24.4728H24.5066H24.5403H24.5741H24.6079H24.6417H24.6755H24.7092H24.743H24.7768H24.7947L24.8106 14.4899L24.8444 14.4896L24.8782 14.4889C24.8895 14.4886 24.9007 14.4884 24.912 14.4881C24.9233 14.4877 24.9345 14.4871 24.9457 14.4866L24.9795 14.4851L25.0133 14.483L25.0471 14.4807L25.0809 14.4781L25.1147 14.4749C25.1259 14.4739 25.1372 14.4728 25.1484 14.4717C25.1597 14.4705 25.171 14.4692 25.1822 14.4678L25.216 14.4637C25.2273 14.4623 25.2386 14.4609 25.2498 14.4593C25.2611 14.4577 25.2723 14.456 25.2836 14.4543C25.2949 14.4526 25.3061 14.4509 25.3173 14.4491L25.3511 14.4434L25.3849 14.4373C25.3962 14.4352 25.4075 14.4332 25.4187 14.431C25.43 14.4287 25.4412 14.4263 25.4525 14.424L25.4863 14.4167C25.4976 14.4142 25.5088 14.4116 25.52 14.409C25.5314 14.4063 25.5426 14.4035 25.5538 14.4007C25.5651 14.3979 25.5764 14.3951 25.5876 14.3921C25.5989 14.3892 25.6102 14.3862 25.6214 14.3831C25.6327 14.3799 25.6439 14.3767 25.6552 14.3734C25.6665 14.3701 25.6778 14.3668 25.689 14.3634L25.7228 14.3528C25.7341 14.3492 25.7453 14.3454 25.7565 14.3417C25.7678 14.3379 25.7791 14.3341 25.7903 14.3301C25.8016 14.3261 25.8129 14.3222 25.8241 14.318C25.8355 14.3139 25.8467 14.3095 25.8579 14.3052C25.8692 14.3008 25.8805 14.2964 25.8917 14.2919C25.903 14.2873 25.9143 14.2828 25.9254 14.2781C25.9368 14.2733 25.948 14.2684 25.9592 14.2635C25.9706 14.2585 25.9818 14.2534 25.993 14.2483C26.0043 14.2431 26.0156 14.2378 26.0268 14.2325C26.0381 14.2271 26.0494 14.2216 26.0606 14.2161C26.0719 14.2104 26.0831 14.2046 26.0943 14.1988C26.1057 14.1928 26.1169 14.1868 26.1281 14.1807C26.1395 14.1745 26.1508 14.1682 26.1619 14.1619C26.1733 14.1554 26.1846 14.1489 26.1957 14.1423C26.207 14.1356 26.2184 14.1288 26.2295 14.1219C26.2409 14.1148 26.2521 14.1076 26.2633 14.1004C26.2747 14.093 26.2859 14.0855 26.2971 14.0779C26.3084 14.0702 26.3197 14.0623 26.3308 14.0544C26.3422 14.0463 26.3535 14.0381 26.3646 14.0299C26.376 14.0214 26.3873 14.0128 26.3984 14.0042C26.4098 13.9953 26.4211 13.9863 26.4322 13.9772C26.4436 13.9679 26.4548 13.9584 26.466 13.9489C26.4774 13.9391 26.4886 13.9291 26.4998 13.9191C26.5112 13.9087 26.5224 13.8982 26.5335 13.8876C26.545 13.8767 26.5562 13.8657 26.5673 13.8545C26.5788 13.8429 26.59 13.8312 26.6011 13.8193C26.6126 13.807 26.6238 13.7946 26.6349 13.782C26.6464 13.7689 26.6576 13.7557 26.6687 13.7423C26.6802 13.7283 26.6914 13.7142 26.7024 13.6999C26.714 13.6848 26.7253 13.6698 26.7362 13.6544C26.7479 13.6381 26.759 13.6215 26.77 13.6047C26.7816 13.587 26.7929 13.569 26.8038 13.5508C26.8155 13.5312 26.8268 13.5114 26.8376 13.4913C26.8493 13.4694 26.8607 13.4473 26.8714 13.4248C26.8833 13.3997 26.8946 13.3741 26.9051 13.3483C26.9173 13.3186 26.9286 13.2885 26.9389 13.2579C26.9516 13.2201 26.9628 13.1816 26.9727 13.1425C26.9871 13.0852 26.9984 13.0264 27.0065 12.9662C27.0163 12.8932 27.0215 12.8181 27.0215 12.741C27.0215 12.6658 27.0164 12.5929 27.0065 12.522C26.9984 12.4638 26.9871 12.407 26.9727 12.3518C26.9629 12.3141 26.9516 12.2772 26.9389 12.241C26.9286 12.2113 26.9173 12.182 26.9051 12.1532C26.8946 12.1284 26.8833 12.1038 26.8714 12.0797C26.8606 12.058 26.8494 12.0365 26.8376 12.0154C26.8267 11.996 26.8155 11.9768 26.8038 11.9579C26.7929 11.9403 26.7816 11.923 26.77 11.906C26.7591 11.8898 26.7478 11.8738 26.7362 11.8581C26.7253 11.8433 26.714 11.8287 26.7024 11.8142C26.6914 11.8004 26.6802 11.7868 26.6687 11.7733C26.6576 11.7603 26.6464 11.7475 26.6349 11.7349C26.6238 11.7227 26.6126 11.7107 26.6011 11.6989C26.5901 11.6874 26.5788 11.6762 26.5673 11.665C26.5562 11.6542 26.5449 11.6436 26.5335 11.633C26.5224 11.6228 26.5112 11.6127 26.4998 11.6028C26.4886 11.5931 26.4774 11.5834 26.466 11.574C26.4548 11.5647 26.4436 11.5556 26.4322 11.5466C26.421 11.5378 26.4098 11.5291 26.3984 11.5205C26.3873 11.5121 26.376 11.5039 26.3646 11.4957C26.3535 11.4877 26.3422 11.4797 26.3308 11.4719C26.3197 11.4643 26.3084 11.4567 26.2971 11.4492C26.2859 11.4419 26.2746 11.4346 26.2633 11.4275C26.2521 11.4205 26.2409 11.4135 26.2295 11.4067C26.2184 11.4 26.2071 11.3934 26.1957 11.3869C26.1845 11.3805 26.1733 11.3741 26.1619 11.3679C26.1508 11.3617 26.1395 11.3557 26.1281 11.3497C26.117 11.3438 26.1057 11.338 26.0943 11.3322C26.0832 11.3266 26.0719 11.3209 26.0606 11.3154C26.0494 11.31 26.0381 11.3046 26.0268 11.2993C26.0156 11.2941 26.0043 11.289 25.993 11.284C25.9818 11.279 25.9706 11.2741 25.9592 11.2693C25.948 11.2645 25.9368 11.2598 25.9254 11.2551C25.9142 11.2505 25.903 11.2459 25.8917 11.2415C25.8805 11.2371 25.8692 11.2327 25.8579 11.2285C25.8467 11.2243 25.8354 11.2202 25.8241 11.2161C25.8129 11.2121 25.8016 11.2082 25.7903 11.2043C25.7791 11.2004 25.7679 11.1966 25.7565 11.1928C25.7453 11.1891 25.7341 11.1855 25.7228 11.182C25.7116 11.1784 25.7002 11.175 25.689 11.1716L25.6552 11.1617C25.6439 11.1585 25.6327 11.1553 25.6214 11.1522C25.6102 11.1491 25.5989 11.1462 25.5876 11.1433C25.5764 11.1404 25.5651 11.1376 25.5538 11.1348C25.5426 11.132 25.5314 11.1293 25.52 11.1266C25.5088 11.124 25.4976 11.1214 25.4863 11.119C25.4751 11.1165 25.4638 11.1141 25.4525 11.1117C25.4412 11.1094 25.43 11.107 25.4187 11.1048L25.3849 11.0983L25.3511 11.0923C25.3399 11.0904 25.3287 11.0884 25.3173 11.0866L25.2836 11.0813C25.2723 11.0796 25.2611 11.078 25.2498 11.0764L25.216 11.0718L25.1822 11.0675L25.1484 11.0637L25.1147 11.0602L25.0809 11.057L25.0471 11.0542L25.0159 11.0518L25.0159 11.0113L25.0471 11.0065L25.0809 11.0009C25.0922 10.999 25.1035 10.997 25.1147 10.995L25.1484 10.9885C25.1598 10.9862 25.171 10.9839 25.1822 10.9815L25.216 10.9742C25.2273 10.9716 25.2386 10.969 25.2498 10.9664C25.2611 10.9636 25.2723 10.9608 25.2836 10.9579C25.2949 10.955 25.3061 10.952 25.3173 10.949C25.3287 10.9459 25.3399 10.9428 25.3511 10.9395C25.3625 10.9363 25.3737 10.933 25.3849 10.9296C25.3962 10.9262 25.4075 10.9227 25.4187 10.9191C25.43 10.9155 25.4413 10.9117 25.4525 10.9079C25.4638 10.9041 25.4751 10.9001 25.4863 10.8962C25.4976 10.8921 25.5089 10.888 25.52 10.8838C25.5314 10.8796 25.5427 10.8753 25.5538 10.8709C25.5652 10.8664 25.5764 10.8619 25.5876 10.8572C25.599 10.8525 25.6102 10.8478 25.6214 10.8429C25.6328 10.8379 25.644 10.8329 25.6552 10.8278C25.6665 10.8226 25.6778 10.8173 25.689 10.8119C25.7003 10.8065 25.7116 10.8009 25.7228 10.7952C25.7341 10.7895 25.7454 10.7837 25.7565 10.7778C25.7679 10.7718 25.7792 10.7656 25.7903 10.7594C25.8017 10.7531 25.8129 10.7467 25.8241 10.7402C25.8355 10.7336 25.8467 10.7268 25.8579 10.72C25.8693 10.713 25.8805 10.706 25.8917 10.6988C25.903 10.6915 25.9143 10.684 25.9254 10.6765C25.9368 10.6688 25.9481 10.661 25.9592 10.653C25.9706 10.6449 25.9819 10.6367 25.993 10.6284C26.0044 10.6199 26.0157 10.6112 26.0268 10.6025C26.0382 10.5935 26.0495 10.5844 26.0606 10.5751C26.072 10.5656 26.0833 10.556 26.0943 10.5462C26.1058 10.5361 26.1171 10.5259 26.1281 10.5156C26.1396 10.5049 26.1509 10.4941 26.1619 10.4832C26.1734 10.4719 26.1847 10.4604 26.1957 10.4489C26.2072 10.4368 26.2185 10.4246 26.2295 10.4122C26.241 10.3993 26.2523 10.3862 26.2633 10.373C26.2748 10.3592 26.2861 10.3452 26.2971 10.3311C26.3086 10.3162 26.3199 10.3011 26.3308 10.2858C26.3425 10.2696 26.3537 10.2531 26.3646 10.2366C26.3763 10.2189 26.3876 10.201 26.3984 10.1829C26.4101 10.1633 26.4214 10.1434 26.4322 10.1233C26.444 10.1012 26.4553 10.0789 26.466 10.0563C26.478 10.0309 26.4892 10.0051 26.4998 9.97905C26.512 9.9487 26.5233 9.91793 26.5335 9.88676C26.5464 9.84759 26.5577 9.80778 26.5673 9.76746C26.5829 9.70205 26.5942 9.63527 26.6011 9.56734C26.6066 9.51375 26.6095 9.45943 26.6095 9.40458C26.6095 9.34665 26.6066 9.29017 26.6011 9.23509C26.5941 9.1647 26.5828 9.09672 26.5673 9.03109C26.5577 8.99009 26.5464 8.95003 26.5335 8.91094C26.5232 8.87966 26.512 8.849 26.4998 8.81893C26.4892 8.79303 26.4779 8.76758 26.466 8.7426C26.4553 8.72031 26.444 8.69839 26.4322 8.67683C26.4214 8.65709 26.4101 8.63766 26.3984 8.61851C26.3875 8.60073 26.3763 8.5832 26.3646 8.56595C26.3537 8.5498 26.3424 8.53389 26.3308 8.51821C26.3199 8.50337 26.3086 8.48873 26.2971 8.47431C26.286 8.46053 26.2748 8.4469 26.2633 8.43348C26.2523 8.42074 26.241 8.40823 26.2295 8.39582C26.2185 8.3839 26.2072 8.37214 26.1957 8.36052C26.1846 8.34932 26.1734 8.33828 26.1619 8.32739C26.1508 8.31684 26.1396 8.30639 26.1281 8.29614C26.1171 8.2862 26.1058 8.27638 26.0943 8.26669C26.0832 8.25728 26.072 8.24798 26.0606 8.23883C26.0495 8.22992 26.0382 8.2211 26.0268 8.21245C26.0157 8.204 26.0044 8.19568 25.993 8.18748C25.9819 8.17944 25.9706 8.17154 25.9592 8.16373C25.9481 8.15612 25.9368 8.14861 25.9254 8.14119C25.9143 8.13391 25.903 8.12674 25.8917 8.11969C25.8805 8.11277 25.8692 8.10597 25.8579 8.09925C25.8467 8.09264 25.8355 8.08614 25.8241 8.07973C25.8129 8.07343 25.8017 8.06722 25.7903 8.06111C25.7791 8.05509 25.7679 8.04921 25.7565 8.04336C25.7454 8.03762 25.7341 8.03196 25.7228 8.02639C25.7116 8.0209 25.7003 8.01545 25.689 8.01015C25.6778 8.00492 25.6665 7.99974 25.6552 7.9947C25.644 7.98971 25.6327 7.9849 25.6214 7.98005C25.6102 7.97529 25.5989 7.97062 25.5876 7.966C25.5764 7.96146 25.5651 7.95698 25.5538 7.95259C25.5426 7.94825 25.5314 7.94393 25.52 7.93973C25.5088 7.93559 25.4976 7.93153 25.4863 7.92753C25.4751 7.92358 25.4638 7.91974 25.4525 7.91593C25.4413 7.91218 25.43 7.90851 25.4187 7.9049C25.4075 7.90132 25.3962 7.89779 25.3849 7.89435C25.3737 7.89093 25.3625 7.88751 25.3511 7.88424C25.3399 7.88102 25.3287 7.87791 25.3173 7.87483C25.3061 7.87175 25.2949 7.86878 25.2836 7.86584L25.2498 7.85724C25.2386 7.85447 25.2273 7.85176 25.216 7.84912C25.2048 7.84652 25.1935 7.844 25.1822 7.84154L25.1484 7.83434C25.1372 7.83202 25.126 7.82967 25.1147 7.82748C25.1035 7.8253 25.0921 7.82328 25.0809 7.82121L25.0471 7.81527C25.0359 7.81337 25.0246 7.81144 25.0133 7.80964L24.9795 7.80452L24.9457 7.79976L24.912 7.79528L24.8782 7.79128L24.8444 7.78764L24.8106 7.78425L24.7768 7.78128L24.743 7.77868L24.7092 7.77627L24.6755 7.77434L24.6621 7.77358L24.6417 7.77232L24.6079 7.77033L24.5741 7.76846L24.5403 7.76669L24.5066 7.76507L24.4728 7.76361L24.439 7.76238L24.4052 7.76134L24.3714 7.76059L24.3376 7.76014L24.319 7.76008H24.3039H24.2701H24.2363H24.2025H24.1687H24.1349H24.1012H24.0674H24.0336H23.9998H23.966H23.9322H23.8984H23.8647H23.8309H23.7971H23.7633H23.7296H23.6958H23.662H23.6282H23.5944H23.5606H23.5268H23.4931H23.4593H23.4255H23.3917H23.3579H23.3241H23.2904H23.2566H23.2228H23.189H23.1552H23.1214H23.0877H23.0539H23.0201H22.9863H22.9525H22.9188H22.885H22.8512H22.8174H22.7836H22.7498H22.7161H22.6823H22.6485H22.6147H22.5809H22.5471H22.5133H22.4796H22.4458H22.412H22.3782H22.3445H22.3107H22.2769H22.2431H22.2093H22.1755H22.1417H22.108H22.0742H22.0404H22.0066H21.9728H21.939H21.9053H21.8715H21.8377H21.8039H21.7701H21.7363H21.7026H21.6688H21.635H21.6012H21.5674H21.5337H21.4999H21.4661H21.4323H21.3985H21.3647H21.3309H21.2972H21.2634H21.2296H21.1958H21.162H21.1282H21.0945H21.0607H21.0269H20.9931H20.9594H20.9256H20.8918H20.858H20.8242H20.7904H20.7566H20.7229H20.6891H20.6553H20.6215H20.5877H20.5539H20.5202H20.4864H20.4526H20.4188H20.385H20.3512H20.3175H20.2837H20.2499H20.2161H20.1823H20.1486H20.1148H20.081H20.0472H20.0134H19.9796H19.9458H19.9121H19.8783H19.8445H19.8107H19.7769H19.7431H19.7094H19.6756H19.6418H19.608H19.5742H19.5405H19.5067H19.4729H19.4391H19.3662V4.12538C19.3662 3.88086 19.3914 3.64225 19.4391 3.41186C19.4493 3.36253 19.4606 3.31361 19.4729 3.26509C19.4834 3.22356 19.4947 3.18235 19.5067 3.14144C19.5174 3.1049 19.5286 3.06861 19.5405 3.03257C19.5513 2.99965 19.5625 2.96689 19.5742 2.93441C19.5851 2.90428 19.5963 2.87432 19.608 2.84458C19.619 2.81681 19.6302 2.78917 19.6418 2.76176C19.6528 2.73589 19.664 2.71013 19.6756 2.68456C19.6866 2.66029 19.6979 2.63618 19.7094 2.61221C19.7204 2.58934 19.7317 2.56663 19.7431 2.54403C19.7542 2.5223 19.7655 2.50074 19.7769 2.47927C19.788 2.45858 19.7993 2.43802 19.8107 2.41758C19.8218 2.39776 19.8331 2.3781 19.8445 2.35853C19.8556 2.33955 19.8668 2.32065 19.8783 2.30192C19.8894 2.28374 19.9006 2.26571 19.9121 2.24776C19.9231 2.23038 19.9345 2.21316 19.9458 2.19599C19.957 2.17919 19.9682 2.16245 19.9796 2.14584C19.9908 2.12958 20.0019 2.11331 20.0134 2.09724C20.0245 2.08167 20.0359 2.0663 20.0472 2.05092C20.0583 2.0358 20.0696 2.0208 20.081 2.00587C20.0922 1.99117 20.1033 1.97642 20.1148 1.96191C20.1259 1.9478 20.1372 1.93391 20.1486 1.91997C20.1597 1.90622 20.171 1.89259 20.1823 1.87903C20.1935 1.86565 20.2047 1.85227 20.2161 1.83905C20.2272 1.82617 20.2386 1.81351 20.2499 1.8008C20.2611 1.7882 20.2723 1.77557 20.2837 1.76314C20.2948 1.75096 20.3061 1.73889 20.3175 1.72685C20.3286 1.71498 20.3399 1.70319 20.3512 1.69146C20.3624 1.6799 20.3736 1.66833 20.385 1.65691C20.3962 1.64568 20.4075 1.63462 20.4188 1.62356C20.43 1.61256 20.4412 1.60144 20.4526 1.59061C20.4637 1.57999 20.4751 1.56963 20.4864 1.55916C20.4976 1.54875 20.5088 1.5383 20.5202 1.52803C20.5313 1.51792 20.5427 1.50801 20.5539 1.49807C20.5652 1.48818 20.5764 1.4783 20.5877 1.46855C20.5989 1.45895 20.6102 1.44949 20.6215 1.44002C20.6327 1.43064 20.644 1.42129 20.6553 1.41205C20.6665 1.40289 20.6778 1.39385 20.6891 1.38486L20.7229 1.35829L20.7566 1.33242C20.7679 1.32393 20.7791 1.31551 20.7904 1.30716C20.8016 1.2989 20.8129 1.29067 20.8242 1.28252L20.858 1.25853C20.8692 1.25066 20.8804 1.24285 20.8918 1.23512L20.9256 1.21224L20.9594 1.18998C20.9706 1.18267 20.9818 1.17539 20.9931 1.16823L21.0269 1.14711C21.0382 1.14014 21.0494 1.13317 21.0607 1.12634C21.0719 1.11956 21.0832 1.11298 21.0945 1.10635C21.1057 1.09971 21.1169 1.09302 21.1282 1.08652C21.1394 1.08011 21.1508 1.07392 21.162 1.06762C21.1733 1.06132 21.1845 1.05491 21.1958 1.04875C21.207 1.04268 21.2184 1.0368 21.2296 1.03083C21.2409 1.02487 21.2521 1.01888 21.2634 1.01302C21.2746 1.00723 21.2859 1.0016 21.2972 0.995943C21.3084 0.990315 21.3197 0.984659 21.3309 0.979143L21.3647 0.962819C21.376 0.957471 21.3872 0.952263 21.3985 0.947027C21.4098 0.941819 21.421 0.936527 21.4323 0.931431C21.4435 0.926391 21.4548 0.921575 21.4661 0.916647C21.4774 0.911719 21.4886 0.906707 21.4999 0.901891C21.5111 0.897131 21.5224 0.892595 21.5337 0.887947C21.5449 0.883327 21.5561 0.878651 21.5674 0.874143L21.6012 0.860843L21.635 0.847992C21.6463 0.843736 21.6575 0.839424 21.6688 0.835308C21.68 0.83122 21.6913 0.827384 21.7026 0.823408C21.7138 0.819432 21.725 0.815372 21.7363 0.811508C21.7475 0.807672 21.7589 0.80406 21.7701 0.800336L21.8039 0.789388C21.8152 0.785804 21.8264 0.782192 21.8377 0.77872C21.8489 0.775276 21.8602 0.772028 21.8715 0.768696C21.8827 0.765336 21.894 0.761864 21.9053 0.758644C21.9165 0.755452 21.9278 0.752484 21.939 0.749404C21.9503 0.746324 21.9615 0.743216 21.9728 0.740248L22.0066 0.731512C22.0178 0.728684 22.0291 0.725996 22.0404 0.72328C22.0517 0.720564 22.0629 0.717652 22.0742 0.715048C22.0854 0.712472 22.0967 0.71012 22.108 0.707628L22.1417 0.700264L22.1755 0.693292C22.1867 0.691052 22.198 0.688952 22.2093 0.686824C22.2206 0.684668 22.2318 0.682372 22.2431 0.680328C22.2543 0.678284 22.2656 0.676548 22.2769 0.674644L22.3107 0.669044C22.3219 0.667252 22.3332 0.665404 22.3445 0.663724C22.3557 0.662044 22.367 0.66056 22.3782 0.658992C22.3895 0.657424 22.4007 0.655716 22.412 0.65426C22.4232 0.652804 22.4345 0.651516 22.4458 0.650172L22.4796 0.646308C22.4908 0.645076 22.5021 0.643704 22.5133 0.642584C22.5246 0.641464 22.5359 0.640596 22.5471 0.639588L22.5809 0.636592L22.6147 0.634044C22.6259 0.633232 22.6372 0.632588 22.6485 0.631888C22.6597 0.631216 22.671 0.630348 22.6823 0.62976C22.6935 0.629172 22.7048 0.628836 22.7161 0.62836L22.7498 0.6271C22.7611 0.626736 22.7723 0.62626 22.7836 0.626008C22.7949 0.625756 22.8061 0.625728 22.8174 0.62556C22.8287 0.625392 22.8399 0.625196 22.8512 0.62514L22.8597 0.625028H22.885H22.9188H22.9525H22.9863H23.0201H23.0539H23.0877H23.1214H23.1552H23.189H23.2228H23.2566H23.2904H23.3241H23.3579H23.3917H23.4255H23.4593H23.4931H23.5268H23.5606H23.5944H23.6282H23.662H23.6958H23.7296H23.7633H23.7971H23.8309H23.8647H23.8984H23.9322H23.966H23.9998H24.0336H24.0674H24.1012H24.1349H24.1687H24.2025H24.2363H24.2701H24.3039H24.3376H24.3714H24.4052H24.439H24.4728H24.5066H24.5403H24.5741H24.6079H24.6417H24.6755H24.7092H24.743H24.7768H24.8106H24.8444H24.8782H24.912H24.9457H24.9795H25.0133H25.0471H25.0809H25.1147H25.1484H25.1822H25.216H25.2498H25.2836H25.3173H25.3511H25.3849H25.4187H25.4525H25.4863H25.52H25.5538H25.5876H25.6214H25.6552H25.689H25.7228H25.7565H25.7903H25.8241H25.8579H25.8917H25.9254H25.9592H25.993H26.0268H26.0606H26.0943H26.1281H26.1619H26.1957H26.2295H26.2633H26.2971H26.3308H26.3646H26.3984H26.4322H26.466H26.4998H26.5335H26.5673H26.6011H26.6349H26.6687H26.7024H26.7362H26.77H26.8038H26.8376H26.8714H26.9051H26.9389H26.9727H27.0065H27.0403H27.0741H27.1079H27.1416H27.1754H27.2092H27.243H27.2768H27.3106H27.3443H27.3781H27.4119H27.4457H27.4795H27.5133H27.547H27.5808H27.6146H27.6484H27.6822H27.716H27.7497H27.7835H27.8173H27.8511H27.8849H27.9187H27.9524H27.9862V0.625Z" fill="#7A838D"/>
<path fill-rule="evenodd" clip-rule="evenodd" d="M0.0724358 12.8042C0.0482719 12.7927 0.0241359 12.7811 0 12.7695V4.12536C0 3.88153 0.0249759 3.64353 0.0724358 3.41377C0.0826278 3.36443 0.0939398 3.31554 0.106176 3.26699C0.116648 3.22541 0.127932 3.18417 0.139888 3.1432C0.150556 3.10669 0.161812 3.07046 0.1736 3.03445C0.184408 3.00149 0.19558 2.96868 0.20734 2.93614C0.218232 2.90604 0.229375 2.87611 0.241051 2.8464C0.251943 2.81863 0.263199 2.79094 0.274791 2.7635C0.285739 2.73762 0.296967 2.71192 0.308503 2.68638C0.319479 2.66211 0.330735 2.63803 0.342215 2.61406C0.353191 2.59116 0.364503 2.56842 0.375955 2.5458C0.386959 2.52407 0.398215 2.50251 0.409667 2.48106C0.420699 2.46037 0.431955 2.43982 0.443379 2.41938C0.454439 2.39958 0.465667 2.3799 0.477119 2.36035C0.488207 2.34137 0.499379 2.32244 0.510831 2.30368C0.521919 2.28554 0.533175 2.26753 0.544571 2.24961C0.555603 2.23225 0.566943 2.215 0.578283 2.19784C0.589399 2.18104 0.600599 2.1643 0.611995 2.14769C0.623195 2.1314 0.634283 2.11513 0.645735 2.09903C0.656795 2.08349 0.668134 2.06815 0.679446 2.05277C0.69059 2.03765 0.701819 2.02265 0.713187 2.00772C0.724358 1.99305 0.735502 1.97827 0.746898 1.96376C0.757986 1.94968 0.769326 1.93582 0.78061 1.9219C0.791754 1.90815 0.802982 1.89446 0.81435 1.88088C0.825522 1.86753 0.836694 1.8542 0.848062 1.84101C0.859178 1.8281 0.87049 1.81542 0.881802 1.80268C0.892974 1.79005 0.904146 1.77745 0.915514 1.76502C0.92663 1.75284 0.937942 1.74083 0.949226 1.72881C0.960398 1.71691 0.971626 1.70513 0.982966 1.69339C0.994138 1.68183 1.00534 1.67027 1.01668 1.65884C1.02782 1.64761 1.03913 1.63655 1.05042 1.62549C1.06165 1.61449 1.07276 1.6034 1.08413 1.59257C1.09525 1.58195 1.10659 1.57159 1.11784 1.56112C1.12907 1.55068 1.14021 1.54021 1.15158 1.52993C1.16273 1.51985 1.17404 1.50997 1.18529 1.50003C1.19652 1.49014 1.20769 1.48023 1.21903 1.47049C1.23021 1.46088 1.24146 1.45145 1.25275 1.44198C1.26392 1.4326 1.27515 1.42322 1.28646 1.41398C1.29763 1.40485 1.30891 1.39581 1.3202 1.38679C1.3314 1.37786 1.3426 1.36901 1.35391 1.36022C1.36508 1.35151 1.37637 1.34292 1.38765 1.33435C1.39885 1.32587 1.41008 1.31741 1.42136 1.30907L1.45507 1.28448C1.46627 1.27639 1.4775 1.26835 1.48881 1.2604C1.49998 1.25253 1.51124 1.24475 1.52252 1.23702C1.53372 1.22932 1.54495 1.22168 1.55624 1.21412C1.56744 1.20664 1.57869 1.19928 1.58998 1.19191C1.60118 1.18461 1.61238 1.17724 1.62369 1.17005C1.63486 1.16293 1.64614 1.15599 1.65743 1.14899C1.66866 1.14202 1.67983 1.13496 1.69114 1.12813C1.70228 1.12138 1.7136 1.11483 1.72485 1.10819C1.73611 1.10156 1.74725 1.09481 1.75859 1.08829C1.76974 1.08188 1.78108 1.07574 1.7923 1.06944C1.80356 1.06314 1.81473 1.05676 1.82604 1.05057C1.83722 1.04447 1.8485 1.03859 1.85976 1.03262C1.87098 1.02666 1.88218 1.02067 1.89347 1.01482C1.90467 1.00902 1.91592 1.00334 1.92721 0.997651L1.96092 0.980907C1.97215 0.975391 1.98338 0.969875 1.99466 0.964499C2.00586 0.959151 2.01712 0.953971 2.02837 0.948735C2.03963 0.943499 2.05077 0.938151 2.06208 0.933055C2.07326 0.927987 2.08457 0.923227 2.09582 0.918299C2.10705 0.913371 2.11825 0.908359 2.12954 0.903543C2.14074 0.898783 2.15202 0.894191 2.16328 0.889543L2.19699 0.875767L2.2307 0.862383L2.26444 0.84956C2.2757 0.845304 2.28684 0.840908 2.29815 0.836764C2.30932 0.832676 2.32066 0.828868 2.33189 0.824892C2.34312 0.820916 2.35432 0.816884 2.3656 0.81302L2.39931 0.801736L2.43305 0.790788C2.44428 0.787204 2.45548 0.783536 2.46677 0.780064C2.47794 0.77662 2.48925 0.773344 2.50048 0.770012C2.51173 0.766652 2.52293 0.763236 2.53422 0.759988C2.54542 0.756768 2.55667 0.753772 2.56793 0.750664L2.60167 0.741508C2.6129 0.73854 2.6241 0.735516 2.63538 0.73266C2.64658 0.729804 2.65787 0.7272 2.66909 0.724456C2.68032 0.721712 2.69155 0.718856 2.70283 0.716224C2.71403 0.71362 2.72532 0.711184 2.73655 0.708692L2.77029 0.701356C2.78151 0.698948 2.79271 0.696512 2.804 0.694244C2.8152 0.692004 2.82648 0.689932 2.83771 0.687776C2.84897 0.68562 2.86017 0.68338 2.87145 0.681336C2.88268 0.679292 2.89391 0.677444 2.90516 0.675512L2.9389 0.669912C2.95013 0.66812 2.96133 0.666188 2.97261 0.66448C2.98381 0.662772 2.9951 0.661344 3.00633 0.659748C3.01755 0.65818 3.02878 0.6565 3.04007 0.655016L3.07378 0.650788L3.10752 0.646952C3.11877 0.645692 3.12995 0.644236 3.14123 0.643088C3.15243 0.64194 3.16371 0.6411 3.17494 0.640064L3.20868 0.637096C3.21991 0.636144 3.23114 0.63522 3.24239 0.634408C3.25362 0.633596 3.26488 0.632952 3.27613 0.632252C3.28739 0.631552 3.29859 0.63074 3.30984 0.630124C3.32104 0.629508 3.3323 0.629088 3.34356 0.628584L3.3773 0.627296C3.38852 0.626904 3.39972 0.626316 3.41101 0.626036C3.42221 0.625756 3.43349 0.625784 3.44472 0.625616C3.45595 0.625448 3.4672 0.625252 3.47846 0.625196L3.49344 0.625H3.51217H3.54591H3.57962H3.61334H3.64708H3.68079H3.71453H3.74824H3.78195H3.81569H3.8494H3.88314H3.91686H3.95057H3.98431H4.01802H4.05176H4.08547H4.11918H4.15292H4.18664H4.22038H4.25409H4.2878H4.32154H4.35525H4.38899H4.4227H4.45641H4.49015H4.52387H4.55761H4.59132H4.62503H4.65877H4.69248H4.72619H4.75993H4.79365H4.82739H4.8611H4.89481H4.92855H4.96226H4.996H5.02971H5.06342H5.09717H5.13088H5.16462H5.19833H5.23204H5.26578H5.29949H5.33323H5.36695H5.40066H5.4344H5.46811H5.50182H5.53556H5.56927H5.60301H5.63672H5.67046H5.70418H5.73789H5.77163H5.80534H5.83905H5.87279H5.9065H5.94024H5.97395H6.00767H6.04141H6.07512H6.10886H6.14257H6.17628H6.21002H6.24373H6.27747H6.31119H6.3449H6.37864H6.41235H6.44606H6.4798H6.51351H6.54725H6.58097H6.61471H6.64842H6.68213H6.71587H6.74958H6.78332H6.81703H6.85075H6.88449H6.9182H6.95191H6.98565H7.01936H7.0531H7.08681H7.12055H7.15426H7.18798H7.22172H7.25543H7.28914H7.32288H7.35659H7.39033H7.42404H7.45776H7.4915H7.52521H7.55892H7.59266H7.62637H7.66011H7.69382H7.72756H7.76128H7.79499H7.82873H7.86244H7.89615H7.92989H7.9636H7.99734H8.03105H8.06477H8.09851H8.13222H8.16596H8.19967H8.23338H8.26712H8.30083H8.33457H8.36829H8.402H8.43574H8.46945H8.50316H8.5369H8.57061H8.60435H8.63297V18.1255C8.63297 18.2777 8.6232 18.4277 8.60435 18.5748C8.59528 18.6456 8.58386 18.7157 8.57061 18.7852C8.56053 18.838 8.54933 18.8904 8.5369 18.9423C8.52643 18.9861 8.51523 19.0296 8.50316 19.0727C8.49255 19.1105 8.48127 19.1481 8.46945 19.1853C8.45873 19.2191 8.44744 19.2526 8.43574 19.2859C8.4249 19.3167 8.41367 19.3474 8.402 19.3778C8.39111 19.4063 8.37988 19.4345 8.36829 19.4625C8.35737 19.489 8.34611 19.5152 8.33457 19.5413C8.3236 19.5661 8.31234 19.5906 8.30083 19.6151C8.28986 19.6384 8.2786 19.6616 8.26712 19.6846C8.25609 19.7068 8.24486 19.7287 8.23338 19.7506C8.22235 19.7716 8.21112 19.7925 8.19967 19.8133C8.18858 19.8334 8.17744 19.8534 8.16596 19.8733C8.1549 19.8924 8.14364 19.9115 8.13222 19.9304C8.12119 19.9487 8.10987 19.9668 8.09851 19.9849C8.08742 20.0026 8.07616 20.0201 8.06477 20.0376C8.05362 20.0546 8.04248 20.0717 8.03105 20.0885C8.01997 20.1048 8.00868 20.121 7.99734 20.1371C7.98626 20.1529 7.97497 20.1685 7.9636 20.1841C7.95246 20.1994 7.94126 20.2147 7.92989 20.2298C7.91877 20.2446 7.90752 20.2593 7.89615 20.2739C7.88504 20.2881 7.87375 20.3022 7.86244 20.3163C7.85127 20.3302 7.8401 20.3442 7.82873 20.3579C7.81761 20.3713 7.8063 20.3845 7.79499 20.3978C7.78384 20.4108 7.77261 20.4238 7.76128 20.4366C7.75008 20.4493 7.73893 20.4621 7.72756 20.4747C7.71645 20.4869 7.70511 20.499 7.69382 20.5111C7.68262 20.5231 7.67148 20.5351 7.66011 20.547C7.64897 20.5586 7.63768 20.5701 7.62637 20.5815C7.6152 20.5929 7.604 20.6041 7.59266 20.6153C7.58149 20.6264 7.57026 20.6374 7.55892 20.6483C7.54778 20.659 7.53649 20.6696 7.52521 20.6802C7.51401 20.6907 7.50284 20.7012 7.4915 20.7116C7.48035 20.7217 7.46904 20.7317 7.45776 20.7417C7.44653 20.7517 7.43541 20.7618 7.42404 20.7716C7.41293 20.7813 7.40156 20.7906 7.39033 20.8002C7.3791 20.8097 7.36793 20.8192 7.35659 20.8286C7.34545 20.8378 7.33414 20.8468 7.32288 20.8558C7.31165 20.8648 7.30048 20.8739 7.28914 20.8828C7.278 20.8915 7.26668 20.9 7.25543 20.9086C7.2442 20.9172 7.23306 20.9258 7.22172 20.9342C7.21057 20.9425 7.19923 20.9506 7.18798 20.9588C7.17675 20.967 7.1656 20.9752 7.15426 20.9833C7.14312 20.9911 7.13181 20.9989 7.12055 21.0066C7.1093 21.0144 7.09815 21.0223 7.08681 21.0299C7.07567 21.0374 7.06436 21.0447 7.0531 21.0521C7.04185 21.0595 7.0307 21.0671 7.01936 21.0743C7.00822 21.0815 6.99688 21.0883 6.98565 21.0954C6.97442 21.1024 6.96325 21.1095 6.95191 21.1164C6.94074 21.1232 6.92943 21.1298 6.9182 21.1365C6.90697 21.1432 6.8958 21.1499 6.88449 21.1564C6.87329 21.1629 6.86203 21.1692 6.85075 21.1756C6.83955 21.1819 6.82832 21.1882 6.81703 21.1944C6.80583 21.2006 6.79461 21.2067 6.78332 21.2127L6.74958 21.2305C6.73835 21.2364 6.72715 21.2422 6.71587 21.248C6.70467 21.2536 6.69341 21.2592 6.68213 21.2647C6.6709 21.2703 6.65973 21.276 6.64842 21.2814C6.63725 21.2868 6.62593 21.2919 6.61471 21.2972C6.60345 21.3025 6.59228 21.3078 6.58097 21.313C6.56979 21.318 6.55848 21.3229 6.54725 21.3279L6.51351 21.3427L6.4798 21.357C6.4686 21.3616 6.45732 21.3662 6.44606 21.3707C6.43483 21.3753 6.42363 21.38 6.41235 21.3844C6.40118 21.3888 6.38989 21.3929 6.37864 21.3972C6.36738 21.4015 6.35621 21.4059 6.3449 21.41C6.3337 21.4142 6.32244 21.4181 6.31119 21.4222L6.27747 21.434L6.24373 21.4456C6.23253 21.4493 6.22125 21.4529 6.21002 21.4565C6.19877 21.4602 6.18759 21.464 6.17628 21.4675C6.16511 21.471 6.1538 21.4742 6.14257 21.4776L6.10886 21.4876L6.07512 21.4972C6.06392 21.5004 6.05266 21.5033 6.04141 21.5063C6.03015 21.5094 6.01895 21.5126 6.00767 21.5154C5.9965 21.5183 5.98515 21.5209 5.97395 21.5237C5.96273 21.5265 5.9515 21.5292 5.94024 21.5319L5.9065 21.5397L5.87279 21.547C5.86154 21.5495 5.85036 21.5521 5.83905 21.5544C5.82785 21.5567 5.81657 21.5587 5.80534 21.5608C5.79411 21.563 5.78288 21.5652 5.77163 21.5673L5.73789 21.5734C5.72669 21.5753 5.71543 21.5771 5.70418 21.5789C5.69292 21.5808 5.68172 21.5828 5.67046 21.5846C5.65926 21.5863 5.64798 21.5877 5.63672 21.5894L5.60301 21.5941C5.59178 21.5956 5.58056 21.5972 5.56927 21.5986C5.55807 21.6 5.54679 21.6011 5.53556 21.6024C5.5243 21.6037 5.5131 21.6051 5.50182 21.6063C5.49062 21.6075 5.47936 21.6085 5.46811 21.6095L5.4344 21.6125C5.42314 21.6135 5.41194 21.6146 5.40066 21.6155C5.38946 21.6163 5.37817 21.6169 5.36695 21.6176L5.33323 21.6197L5.29949 21.6215C5.28829 21.6221 5.27701 21.6224 5.26578 21.6228C5.25452 21.6232 5.2433 21.6238 5.23204 21.6241C5.22084 21.6244 5.20956 21.6245 5.19833 21.6248L5.16462 21.6252C5.1542 21.6253 5.14381 21.6256 5.13334 21.6256H5.13088H5.09717H5.06342H5.02971H4.996H4.96226H4.92855H4.89481H4.8611H4.82739H4.79365H4.75993H4.72619H4.69248H4.65877H4.62503H4.59132H4.55761H4.52387H4.49015H4.45641H4.4227H4.38899H4.35525H4.32154H4.2878H4.25409H4.22038H4.18664H4.15292H4.11918H4.08547H4.05176H4.01802H3.98431H3.95057H3.91686H3.88314H3.8494H3.81569H3.78195H3.74824H3.71453H3.68079H3.64708H3.61334H3.57962H3.54591H3.51217H3.47846H3.44472H3.41101H3.3773H3.34356H3.30984H3.27613H3.24239H3.20868H3.17494H3.14123H3.10752H3.07378H3.04007H3.00633H2.97261H2.9389H2.90516H2.87145H2.83771H2.804H2.77029H2.73655H2.70283H2.66909H2.63538H2.60167H2.56793H2.53422H2.50048H2.46677H2.43305H2.39931H2.3656H2.33189H2.29815H2.26444H2.2307H2.19699H2.16328H2.12954H2.09582H2.06208H2.02837H1.99466H1.96092H1.92721H1.89347H1.85976H1.82604H1.7923H1.75859H1.72485H1.69114H1.65743H1.62369H1.58998H1.55624H1.52252H1.48881H1.45507H1.42136H1.38765H1.35391H1.3202H1.28646H1.25275H1.21903H1.18529H1.15158H1.11784H1.08413H1.05042H1.01668H0.982966H0.949226H0.915514H0.881802H0.848062H0.81435H0.78061H0.746898H0.713187H0.679446H0.645735H0.611995H0.578283H0.544571H0.510831H0.477119H0.443379H0.409667H0.375955H0.342215H0.308503H0.274791H0.241051H0.20734H0.1736H0.139888H0.106176H0.0724358H0V14.2493C0 14.2493 0.0249199 14.2562 0.0724358 14.2681L0.106176 14.2766L0.139888 14.2848L0.1736 14.2929L0.20734 14.3009L0.241051 14.3087L0.274791 14.3164L0.308503 14.3241L0.342215 14.3316L0.375955 14.339L0.409667 14.3463L0.443379 14.3535L0.477119 14.3606L0.510831 14.3676L0.544571 14.3745L0.578283 14.3813L0.611995 14.3881L0.645735 14.3947L0.679446 14.4013L0.713187 14.4078L0.746898 14.4142L0.78061 14.4205L0.81435 14.4268L0.848062 14.4329L0.881802 14.439L0.915514 14.445L0.949226 14.4509L0.982966 14.4568L1.01668 14.4625L1.05042 14.4682L1.08413 14.4738L1.11784 14.4793L1.15158 14.4848L1.18529 14.4902L1.21903 14.4955L1.25275 14.5007L1.28646 14.5059L1.3202 14.511L1.35391 14.516L1.38765 14.5209L1.42136 14.5258L1.45507 14.5306L1.48881 14.5353L1.52252 14.5399L1.55624 14.5445L1.58998 14.549L1.62369 14.5534L1.65743 14.5578L1.69114 14.5621L1.72485 14.5663L1.75859 14.5704L1.7923 14.5745L1.82604 14.5784L1.85976 14.5824L1.89347 14.5862L1.92721 14.59L1.96092 14.5937L1.99466 14.5973L2.02837 14.6009L2.06208 14.6043L2.09582 14.6078L2.12954 14.6111L2.16328 14.6144L2.19699 14.6176L2.2307 14.6207L2.26444 14.6238L2.29815 14.6267L2.33189 14.6296L2.3656 14.6324L2.39931 14.6352L2.43305 14.6379L2.46677 14.6404L2.50048 14.643L2.53422 14.6454L2.56793 14.6478L2.60167 14.6502L2.63538 14.6524L2.66909 14.6545L2.70283 14.6566L2.73655 14.6586L2.77029 14.6606L2.804 14.6624L2.83771 14.6642L2.87145 14.666L2.90516 14.6676L2.9389 14.6692L2.97261 14.6706L3.00633 14.672L3.04007 14.6734L3.07378 14.6746L3.10752 14.6758L3.14123 14.6769L3.17494 14.6779L3.20868 14.6789L3.24239 14.6797L3.27613 14.6805L3.30984 14.6813L3.34356 14.6818L3.3773 14.6824L3.41101 14.6829L3.44472 14.6832L3.47846 14.6836L3.51217 14.6839L3.54591 14.684L3.57962 14.6841L3.59264 14.6841L3.61334 14.684L3.64708 14.6838L3.68079 14.6836L3.71453 14.6834L3.74824 14.6832L3.78195 14.6826L3.81569 14.682L3.8494 14.6813L3.88314 14.6807L3.91686 14.6799L3.95057 14.6788L3.98431 14.6778L4.01802 14.6767L4.05176 14.6756L4.08547 14.6741L4.11918 14.6727L4.15292 14.6711L4.18664 14.6697L4.22038 14.6678L4.25409 14.6658L4.2878 14.6639L4.32154 14.6619L4.35525 14.6597L4.38899 14.6573L4.4227 14.6548L4.45641 14.6524L4.49015 14.6497L4.52387 14.6468L4.55761 14.6439L4.59132 14.641L4.62503 14.6378L4.65877 14.6344L4.69248 14.6309L4.72619 14.6275L4.75993 14.6237L4.79365 14.6198L4.82739 14.6158L4.8611 14.6119L4.89481 14.6075L4.92855 14.603L4.96226 14.5985L4.996 14.5939C5.00737 14.5922 5.01843 14.5904 5.02971 14.5888L5.06342 14.5837L5.09717 14.5786L5.13088 14.5733C5.14222 14.5715 5.15333 14.5695 5.16462 14.5676L5.19833 14.5619C5.2095 14.56 5.22095 14.5582 5.23204 14.5563C5.24341 14.5542 5.25447 14.5521 5.26578 14.55L5.29949 14.5437L5.33323 14.5374L5.36695 14.5308C5.37828 14.5286 5.3894 14.5262 5.40066 14.5239L5.4344 14.5169L5.46811 14.5099C5.4795 14.5074 5.49054 14.5048 5.50182 14.5023L5.53556 14.4947C5.54673 14.4921 5.55818 14.4897 5.56927 14.4871C5.58067 14.4844 5.59173 14.4816 5.60301 14.4788L5.63672 14.4705C5.64792 14.4678 5.65935 14.4651 5.67046 14.4622C5.6818 14.4594 5.69295 14.4563 5.70418 14.4534L5.73789 14.4444C5.74912 14.4413 5.76051 14.4384 5.77163 14.4353C5.78297 14.4322 5.79411 14.429 5.80534 14.4258L5.83905 14.416C5.85028 14.4127 5.86168 14.4095 5.87279 14.4062L5.9065 14.3959L5.94024 14.3853C5.95144 14.3818 5.96287 14.3783 5.97395 14.3747L6.00767 14.3635L6.04141 14.3521C6.05261 14.3482 6.06406 14.3445 6.07512 14.3406C6.08651 14.3366 6.09757 14.3325 6.10886 14.3284L6.14257 14.3161C6.1538 14.3119 6.16517 14.3078 6.17628 14.3036C6.18768 14.2993 6.19877 14.2948 6.21002 14.2904C6.22128 14.286 6.23262 14.2817 6.24373 14.2772L6.27747 14.2635L6.31119 14.2493C6.32239 14.2446 6.33384 14.24 6.3449 14.2352C6.35632 14.2302 6.36735 14.225 6.37864 14.22L6.41235 14.2049L6.44606 14.1892C6.4574 14.1838 6.4686 14.1784 6.4798 14.1729C6.49103 14.1675 6.50245 14.1621 6.51351 14.1566C6.52494 14.1509 6.536 14.145 6.54725 14.1393C6.55851 14.1335 6.56988 14.1278 6.58097 14.1219C6.59236 14.1159 6.60348 14.1098 6.61471 14.1037C6.62602 14.0976 6.63727 14.0914 6.64842 14.0852C6.65976 14.0789 6.67099 14.0725 6.68213 14.0661C6.6935 14.0595 6.7047 14.0529 6.71587 14.0463C6.72715 14.0396 6.73847 14.0329 6.74958 14.0261C6.76098 14.0191 6.77212 14.0121 6.78332 14.005C6.79461 13.9979 6.80595 13.9909 6.81703 13.9837C6.82843 13.9763 6.83955 13.9687 6.85075 13.9612C6.86203 13.9536 6.8734 13.9461 6.88449 13.9384C6.89591 13.9305 6.907 13.9225 6.9182 13.9145C6.92948 13.9064 6.94085 13.8983 6.95191 13.8901C6.96333 13.8817 6.97448 13.8732 6.98565 13.8646C6.99699 13.856 7.00827 13.8473 7.01936 13.8385C7.03073 13.8295 7.04196 13.8204 7.0531 13.8113C7.06447 13.802 7.0757 13.7925 7.08681 13.7831C7.09815 13.7735 7.10949 13.7639 7.12055 13.7541C7.132 13.744 7.14309 13.7338 7.15426 13.7235C7.16558 13.7132 7.17694 13.7028 7.18798 13.6923C7.19943 13.6815 7.2106 13.6705 7.22172 13.6594C7.23311 13.6481 7.24434 13.6367 7.25543 13.6252C7.26677 13.6135 7.27814 13.6019 7.28914 13.59C7.30062 13.5776 7.31174 13.5651 7.32288 13.5525C7.33433 13.5396 7.34553 13.5266 7.35659 13.5135C7.36799 13.5 7.37933 13.4865 7.39033 13.4729C7.40176 13.4587 7.41304 13.4445 7.42404 13.4301C7.43555 13.4151 7.4467 13.3999 7.45776 13.3847C7.46926 13.3688 7.48046 13.3528 7.4915 13.3368C7.503 13.32 7.51423 13.3031 7.52521 13.2862C7.53672 13.2683 7.54797 13.2504 7.55892 13.2323C7.57046 13.2132 7.58174 13.194 7.59266 13.1747C7.60425 13.1541 7.61548 13.1335 7.62637 13.1126C7.63802 13.0904 7.64925 13.0679 7.66011 13.0453C7.67181 13.021 7.68302 12.9965 7.69382 12.9718C7.70556 12.945 7.71684 12.918 7.72756 12.8908C7.73938 12.8607 7.75066 12.8304 7.76128 12.7999C7.77331 12.7652 7.78449 12.7302 7.79499 12.6949C7.80725 12.6536 7.81848 12.6119 7.82873 12.5698C7.84144 12.5176 7.85272 12.4648 7.86244 12.4114C7.87689 12.3319 7.88803 12.2512 7.89615 12.1693C7.90749 12.0552 7.91301 11.9391 7.91301 11.8211V7.76011H7.89615H7.86244H7.82873H7.79499H7.76128H7.72756H7.69382H7.66011H7.62637H7.59266H7.55892H7.52521H7.4915H7.45776H7.42404H7.39033H7.35659H7.32288H7.28914H7.25543H7.22172H7.18798H7.15426H7.12055H7.08681H7.0531H7.01936H6.98565H6.95191H6.9182H6.88449H6.85075H6.81703H6.78332H6.74958H6.71587H6.68213H6.64842H6.61471H6.58097H6.54725H6.51351H6.4798H6.44606H6.41235H6.37864H6.3449H6.31119H6.27747H6.24373H6.21002H6.17628H6.14257H6.10886H6.07512H6.04141H6.00767H5.97395H5.94024H5.9065H5.87279H5.83905H5.80534H5.77163H5.73789H5.70418H5.67046H5.63672H5.60301H5.56927H5.53556H5.50182H5.46811H5.4344H5.40066H5.36695H5.33323H5.29949H5.26578H5.23204H5.19833H5.16462H5.13088H5.09717H5.06342H5.02971H4.996H4.96226H4.92855H4.90299V11.8211C4.90299 11.8847 4.90021 11.9473 4.89481 12.0086C4.88792 12.0867 4.87664 12.1629 4.8611 12.237C4.85149 12.2828 4.84024 12.3277 4.82739 12.3718C4.81714 12.4069 4.80594 12.4414 4.79365 12.4754C4.78317 12.5043 4.77189 12.5328 4.75993 12.5608C4.74927 12.5858 4.73804 12.6105 4.72619 12.6348C4.71541 12.6569 4.70424 12.6788 4.69248 12.7003C4.68167 12.72 4.67036 12.7394 4.65877 12.7586C4.64788 12.7767 4.63665 12.7945 4.62503 12.8121C4.61411 12.8285 4.60285 12.8448 4.59132 12.8608C4.58034 12.876 4.56917 12.8912 4.55761 12.9061C4.54663 12.9202 4.53535 12.934 4.52387 12.9477C4.51286 12.9608 4.50163 12.9738 4.49015 12.9866C4.47912 12.9989 4.46789 13.0111 4.45641 13.023C4.44535 13.0346 4.43415 13.046 4.4227 13.0572C4.41164 13.0681 4.40041 13.0788 4.38899 13.0893C4.37793 13.0995 4.36665 13.1095 4.35525 13.1194C4.34419 13.129 4.33293 13.1385 4.32154 13.1479C4.31045 13.1569 4.29917 13.1659 4.2878 13.1747C4.27671 13.1833 4.26545 13.1917 4.25409 13.2001C4.24297 13.2082 4.23174 13.2162 4.22038 13.224C4.20926 13.2317 4.19803 13.2393 4.18664 13.2468C4.17552 13.2541 4.16429 13.2612 4.15292 13.2683C4.14181 13.2752 4.13055 13.282 4.11918 13.2886C4.10807 13.2951 4.09681 13.3015 4.08547 13.3079C4.07436 13.314 4.0631 13.3201 4.05176 13.3261C4.04062 13.3319 4.02939 13.3377 4.01802 13.3433C4.00688 13.3489 3.99565 13.3543 3.98431 13.3597C3.97314 13.365 3.96194 13.3702 3.95057 13.3753C3.9394 13.3803 3.9282 13.3852 3.91686 13.39C3.90574 13.3947 3.89446 13.3992 3.88314 13.4037C3.872 13.4082 3.86072 13.4125 3.8494 13.4168C3.83823 13.421 3.82703 13.4251 3.81569 13.4291C3.80452 13.4331 3.79329 13.437 3.78195 13.4408C3.77081 13.4445 3.75955 13.4482 3.74824 13.4517C3.7371 13.4552 3.72581 13.4586 3.71453 13.4619C3.70336 13.4652 3.6921 13.4685 3.68079 13.4716C3.66959 13.4747 3.65839 13.4778 3.64708 13.4807C3.6359 13.4836 3.62465 13.4864 3.61334 13.4891C3.60219 13.4918 3.59094 13.4943 3.57962 13.4969C3.56845 13.4993 3.55722 13.5018 3.54591 13.5042C3.53471 13.5065 3.52351 13.5088 3.51217 13.5109C3.501 13.513 3.48974 13.515 3.47846 13.517C3.46726 13.519 3.45603 13.5209 3.44472 13.5228L3.41101 13.5279C3.39984 13.5295 3.38858 13.531 3.3773 13.5325C3.3661 13.534 3.3549 13.5354 3.34356 13.5368L3.30984 13.5405C3.29867 13.5417 3.28742 13.5427 3.27613 13.5437C3.2649 13.5447 3.2537 13.5457 3.24239 13.5466C3.23122 13.5475 3.21996 13.5482 3.20868 13.549C3.19748 13.5497 3.18622 13.5503 3.17494 13.5509C3.16371 13.5515 3.15254 13.5521 3.14123 13.5525C3.13006 13.553 3.11877 13.5532 3.10752 13.5536L3.07378 13.5543C3.06261 13.5545 3.05135 13.5546 3.04007 13.5547L3.02738 13.5548L3.00633 13.5547L2.97261 13.5545L2.9389 13.554L2.90516 13.5533L2.87145 13.5524L2.83771 13.5513L2.804 13.5499L2.77029 13.5484L2.73655 13.5467L2.70283 13.5446L2.66909 13.5425L2.63538 13.5401L2.60167 13.5375L2.56793 13.5346L2.53422 13.5316L2.50048 13.5284L2.46677 13.5249L2.43305 13.5213L2.39931 13.5174L2.3656 13.5133L2.33189 13.5091L2.29815 13.5046L2.26444 13.4999L2.2307 13.495L2.19699 13.49L2.16328 13.4847L2.12954 13.4792L2.09582 13.4736L2.06208 13.4677L2.02837 13.4616L1.99466 13.4554L1.96092 13.4489L1.92721 13.4423L1.89347 13.4354L1.85976 13.4284L1.82604 13.4212L1.7923 13.4138L1.75859 13.4062L1.72485 13.3984L1.69114 13.3905L1.65743 13.3823L1.62369 13.3739L1.58998 13.3654L1.55624 13.3567L1.52252 13.3478L1.48881 13.3387L1.45507 13.3294L1.42136 13.32L1.38765 13.3104L1.35391 13.3006L1.3202 13.2906L1.28646 13.2804L1.25275 13.2701L1.21903 13.2596L1.18529 13.2489L1.15158 13.238L1.11784 13.227L1.08413 13.2158L1.05042 13.2044L1.01668 13.1929L0.982966 13.1812L0.949226 13.1693L0.915514 13.1572L0.881802 13.1451L0.848062 13.1327L0.81435 13.1201L0.78061 13.1074L0.746898 13.0946L0.713187 13.0815L0.679446 13.0683L0.645735 13.055L0.611995 13.0414L0.578283 13.0278L0.544571 13.0139L0.510831 13L0.477119 12.9858L0.443379 12.9715L0.409667 12.957L0.375955 12.9425L0.342215 12.9276L0.308503 12.9127L0.274791 12.8977L0.241051 12.8825L0.20734 12.8671L0.1736 12.8516L0.139888 12.836L0.106176 12.8201L0.0724358 12.8042V12.8042Z" fill="#7A838D"/>
<path fill-rule="evenodd" clip-rule="evenodd" d="M9.75551 8.64746C9.73093 8.66734 9.70674 8.68739 9.68311 8.70769V4.12536C9.68311 3.88167 9.70811 3.64381 9.75551 3.41413C9.76571 3.36482 9.77699 3.31596 9.78923 3.26744C9.79973 3.2258 9.81101 3.1845 9.82297 3.14348C9.83363 3.10694 9.84489 3.07065 9.8567 3.03462C9.86748 3.00169 9.87869 2.96893 9.89042 2.93645C9.90128 2.90635 9.91248 2.87639 9.92416 2.84668C9.93508 2.81891 9.94628 2.79127 9.95787 2.76383C9.96882 2.73796 9.98004 2.71226 9.99158 2.68669C10.0025 2.66242 10.0138 2.63831 10.0253 2.61434C10.0363 2.59144 10.0476 2.56876 10.059 2.54613C10.07 2.5244 10.0813 2.50284 10.0928 2.48137C10.1038 2.46068 10.1151 2.44012 10.1265 2.41968C10.1375 2.39989 10.1488 2.38018 10.1602 2.36063C10.1713 2.34165 10.1825 2.32275 10.1939 2.30399C10.205 2.28587 10.2163 2.26787 10.2276 2.24998C10.2387 2.23256 10.25 2.21534 10.2614 2.19815C10.2725 2.18132 10.2837 2.1646 10.2951 2.148C10.3063 2.1317 10.3174 2.11541 10.3288 2.09934C10.3399 2.08377 10.3512 2.06845 10.3626 2.05311C10.3737 2.03799 10.3849 2.02295 10.3963 2.00803C10.4075 1.99333 10.4186 1.9786 10.43 1.9641C10.4411 1.95001 10.4525 1.93613 10.4637 1.92221C10.4749 1.90846 10.4861 1.89477 10.4975 1.88122C10.5086 1.86783 10.5198 1.85451 10.5312 1.84132C10.5423 1.82844 10.5536 1.81573 10.5649 1.80301C10.5761 1.79041 10.5873 1.77776 10.5986 1.7653C10.6098 1.75312 10.621 1.74108 10.6323 1.72907C10.6435 1.71719 10.6547 1.70541 10.666 1.69367C10.6772 1.68211 10.6884 1.67055 10.6998 1.65912C10.7109 1.64792 10.7222 1.63686 10.7335 1.6258C10.7447 1.6148 10.7559 1.60371 10.7672 1.59285C10.7784 1.58223 10.7897 1.57187 10.8009 1.5614C10.8121 1.55096 10.8233 1.54049 10.8347 1.53021C10.8458 1.52013 10.8571 1.51022 10.8684 1.50028C10.8796 1.49037 10.8908 1.48048 10.9021 1.47074C10.9133 1.46113 10.9246 1.4517 10.9359 1.44223C10.9471 1.43285 10.9583 1.42347 10.9696 1.41421C10.9808 1.40508 10.992 1.39603 11.0033 1.38705C11.0145 1.37811 11.0257 1.36924 11.037 1.36045C11.0482 1.35177 11.0595 1.34317 11.0708 1.3346C11.082 1.32612 11.0932 1.31766 11.1045 1.30932C11.1156 1.30103 11.1269 1.29285 11.1382 1.28471C11.1494 1.27664 11.1606 1.26858 11.1719 1.26063C11.1831 1.25276 11.1944 1.245 11.2057 1.23725C11.2169 1.22955 11.2281 1.22187 11.2394 1.21431C11.2505 1.20684 11.2618 1.19947 11.2731 1.19211C11.2843 1.18477 11.2955 1.17744 11.3068 1.17024C11.318 1.16313 11.3293 1.15619 11.3406 1.14919C11.3518 1.14221 11.363 1.13516 11.3743 1.12833C11.3854 1.12155 11.3968 1.115 11.408 1.10836C11.4193 1.10173 11.4304 1.09495 11.4417 1.08846C11.4529 1.08204 11.4642 1.07588 11.4755 1.06958C11.4867 1.06328 11.4979 1.05693 11.5092 1.05077C11.5203 1.04466 11.5316 1.03878 11.5429 1.03279C11.5541 1.02683 11.5653 1.02084 11.5766 1.01498L11.6103 0.997819L11.6441 0.981047C11.6553 0.975559 11.6665 0.970015 11.6778 0.964639C11.689 0.959291 11.7003 0.954111 11.7115 0.948875C11.7228 0.943667 11.7339 0.938291 11.7452 0.933195C11.7564 0.928127 11.7677 0.923367 11.779 0.918439C11.7902 0.913511 11.8014 0.908499 11.8127 0.903683C11.8239 0.898923 11.8352 0.894303 11.8464 0.889655L11.8801 0.875879C11.8914 0.871371 11.9026 0.866863 11.9139 0.862467C11.9251 0.858099 11.9363 0.8539 11.9476 0.849644C11.9589 0.845388 11.97 0.840992 11.9813 0.836848C11.9925 0.83276 12.0038 0.828952 12.0151 0.824976C12.0263 0.821 12.0375 0.816968 12.0488 0.813104C12.06 0.80924 12.0712 0.805544 12.0825 0.80182L12.1162 0.790872C12.1274 0.787288 12.1387 0.78362 12.15 0.78012C12.1611 0.776676 12.1724 0.773428 12.1837 0.770096C12.1949 0.766736 12.2061 0.763292 12.2174 0.760044C12.2286 0.756824 12.2399 0.753828 12.2511 0.75072L12.2848 0.741564C12.2961 0.738596 12.3073 0.735572 12.3186 0.732716C12.3298 0.729888 12.3411 0.727228 12.3523 0.724484C12.3635 0.72174 12.3747 0.718884 12.386 0.716252C12.3972 0.713648 12.4085 0.711212 12.4197 0.70872L12.4535 0.701384C12.4647 0.699004 12.4759 0.69654 12.4872 0.694272C12.4984 0.692004 12.5097 0.68996 12.5209 0.687804C12.5322 0.685648 12.5434 0.68338 12.5546 0.681336L12.5884 0.675512L12.6221 0.66994C12.6333 0.66812 12.6445 0.666188 12.6558 0.66448C12.667 0.662772 12.6783 0.661344 12.6895 0.659748C12.7008 0.65818 12.712 0.656528 12.7233 0.655044L12.757 0.650816L12.7907 0.646952C12.802 0.645692 12.8132 0.644236 12.8244 0.643088C12.8356 0.64194 12.8469 0.6411 12.8582 0.640064L12.8919 0.637096C12.9031 0.636144 12.9144 0.63522 12.9256 0.634408C12.9368 0.633596 12.9481 0.632952 12.9593 0.632252C12.9706 0.631552 12.9818 0.63074 12.9931 0.630124C13.0043 0.629508 13.0155 0.629088 13.0268 0.628584L13.0605 0.627296C13.0718 0.626904 13.083 0.626316 13.0943 0.626036C13.1055 0.625756 13.1167 0.625784 13.128 0.625616C13.1392 0.625448 13.1504 0.625252 13.1617 0.625196L13.1766 0.625H13.1954H13.2292H13.2629H13.2966H13.3303H13.364H13.3978H13.4315H13.4652H13.4989H13.5327H13.5664H13.6001H13.6338H13.6676H13.7013H13.735H13.7687H13.8025H13.8362H13.8699H13.9036H13.9374H13.9711H14.0048H14.0386H14.0723H14.106H14.1397H14.1734H14.2072H14.2409H14.2746H14.3083H14.3421H14.3758H14.4095H14.4432H14.4769H14.5107H14.5444H14.5781H14.6119H14.6456H14.6793H14.713H14.7468H14.7805H14.8142H14.8479H14.8817H14.9154H14.9491H14.9828H15.0165H15.0503H15.084H15.1177H15.1515H15.1852H15.2189H15.2526H15.2863H15.3201H15.3538H15.3875H15.4212H15.455H15.4887H15.5224H15.5561H15.5899H15.6236H15.6573H15.6911H15.7248H15.7585H15.7922H15.826H15.8597H15.8934H15.9271H15.9608H15.9946H16.0283H16.062H16.0957H16.1295H16.1632H16.1969H16.2306H16.2644H16.2981H16.3318H16.3655H16.3993H16.433H16.4667H16.5004H16.5342H16.5679H16.6016H16.6354H16.6691H16.7028H16.7365H16.7702H16.804H16.8377H16.8714H16.9051H16.9389H16.9726H17.0063H17.04H17.0737H17.1075H17.1412H17.1749H17.2087H17.2424H17.2761H17.3098H17.3436H17.3773H17.411H17.4447H17.4785H17.5122H17.5459H17.5796H17.6134H17.6471H17.6808H17.7145H17.7483H17.782H17.8157H17.8494H17.8831H17.9169H17.9506H17.9843H18.018H18.0518H18.0855H18.1192H18.1529H18.1867H18.2204H18.2541H18.2879H18.3164V18.1255C18.3164 18.2777 18.3067 18.4275 18.2879 18.5746C18.2788 18.6454 18.2674 18.7155 18.2541 18.7849C18.2441 18.8377 18.2328 18.8901 18.2204 18.9421C18.2099 18.9859 18.1988 19.0294 18.1867 19.0725C18.176 19.1103 18.1648 19.1479 18.1529 19.1852C18.1422 19.2189 18.1309 19.2524 18.1192 19.2857C18.1084 19.3166 18.0971 19.3472 18.0855 19.3777C18.0746 19.406 18.0634 19.4342 18.0518 19.4623C18.0408 19.4887 18.0296 19.515 18.018 19.5411C18.0071 19.5659 17.9958 19.5904 17.9843 19.6149C17.9733 19.6382 17.9621 19.6614 17.9506 19.6845C17.9396 19.7066 17.9283 19.7285 17.9169 19.7504C17.9058 19.7714 17.8946 19.7924 17.8831 19.8132C17.8721 19.8333 17.8609 19.8533 17.8494 19.8731C17.8384 19.8923 17.8271 19.9113 17.8157 19.9302C17.8047 19.9485 17.7934 19.9666 17.782 19.9847C17.7709 20.0024 17.7597 20.0199 17.7483 20.0374C17.7371 20.0544 17.726 20.0715 17.7145 20.0883C17.7034 20.1046 17.6922 20.1208 17.6808 20.137C17.6697 20.1527 17.6584 20.1683 17.6471 20.1839C17.6359 20.1993 17.6247 20.2145 17.6134 20.2297C17.6022 20.2444 17.591 20.259 17.5796 20.2736C17.5685 20.2879 17.5572 20.302 17.5459 20.3161C17.5347 20.33 17.5236 20.3439 17.5122 20.3577C17.5011 20.3711 17.4898 20.3843 17.4785 20.3976C17.4673 20.4107 17.4561 20.4236 17.4447 20.4364C17.4335 20.4492 17.4224 20.4619 17.411 20.4745C17.3999 20.4867 17.3885 20.4988 17.3773 20.5109C17.3661 20.5229 17.3549 20.535 17.3436 20.5468C17.3324 20.5585 17.3211 20.5699 17.3098 20.5813C17.2987 20.5927 17.2875 20.6039 17.2761 20.6151C17.265 20.6262 17.2537 20.6372 17.2424 20.6481C17.2312 20.6588 17.22 20.6694 17.2087 20.68C17.1974 20.6905 17.1863 20.7011 17.1749 20.7114C17.1638 20.7216 17.1525 20.7316 17.1412 20.7416C17.13 20.7516 17.1189 20.7617 17.1075 20.7715C17.0963 20.7811 17.085 20.7906 17.0737 20.8C17.0625 20.8095 17.0514 20.8191 17.04 20.8284C17.0289 20.8376 17.0175 20.8466 17.0063 20.8556C16.9951 20.8646 16.9839 20.8737 16.9726 20.8826C16.9614 20.8913 16.9501 20.8998 16.9389 20.9084C16.9276 20.917 16.9165 20.9256 16.9051 20.9341C16.894 20.9424 16.8827 20.9505 16.8714 20.9587C16.8602 20.9668 16.849 20.9751 16.8377 20.9831C16.8265 20.991 16.8152 20.9987 16.804 21.0065C16.7927 21.0143 16.7816 21.0221 16.7702 21.0298C16.7591 21.0373 16.7478 21.0446 16.7365 21.052C16.7253 21.0594 16.7141 21.0669 16.7028 21.0742C16.6916 21.0813 16.6803 21.0882 16.6691 21.0953C16.6578 21.1023 16.6467 21.1094 16.6354 21.1163C16.6242 21.1231 16.6129 21.1297 16.6016 21.1364C16.5904 21.143 16.5792 21.1497 16.5679 21.1563C16.5567 21.1628 16.5454 21.1691 16.5342 21.1755L16.5004 21.1943L16.4667 21.2126L16.433 21.2304C16.4218 21.2362 16.4106 21.2421 16.3993 21.2479C16.3881 21.2535 16.3768 21.2591 16.3655 21.2646C16.3543 21.2702 16.3431 21.2759 16.3318 21.2813C16.3207 21.2867 16.3093 21.2918 16.2981 21.2971C16.2869 21.3023 16.2757 21.3077 16.2644 21.3128C16.2532 21.3179 16.2419 21.3228 16.2306 21.3278L16.1969 21.3425L16.1632 21.3569L16.1295 21.3707C16.1182 21.3752 16.107 21.3799 16.0957 21.3843C16.0846 21.3887 16.0733 21.3928 16.062 21.3971C16.0508 21.4014 16.0396 21.4058 16.0283 21.4099C16.0171 21.4141 16.0058 21.418 15.9946 21.4221L15.9608 21.434L15.9271 21.4455C15.9159 21.4493 15.9046 21.4528 15.8934 21.4565C15.8821 21.4601 15.871 21.4639 15.8597 21.4674C15.8485 21.4709 15.8372 21.4741 15.826 21.4775L15.7922 21.4875L15.7585 21.4971C15.7473 21.5003 15.736 21.5033 15.7248 21.5063C15.7135 21.5093 15.7024 21.5125 15.6911 21.5154C15.6799 21.5183 15.6686 21.5209 15.6573 21.5236C15.6461 21.5264 15.6349 21.5292 15.6236 21.5319L15.5899 21.5396L15.5561 21.547C15.5449 21.5494 15.5337 21.552 15.5224 21.5543C15.5112 21.5566 15.4999 21.5586 15.4887 21.5608L15.455 21.5672L15.4212 21.5733C15.41 21.5753 15.3988 21.5771 15.3875 21.5789C15.3763 21.5808 15.3651 21.5828 15.3538 21.5845C15.3426 21.5862 15.3313 21.5877 15.3201 21.5893L15.2863 21.5941C15.2751 21.5956 15.2639 21.5971 15.2526 21.5985C15.2414 21.5999 15.2301 21.6011 15.2189 21.6024C15.2077 21.6037 15.1965 21.6051 15.1852 21.6063C15.174 21.6074 15.1627 21.6084 15.1515 21.6095L15.1177 21.6125C15.1065 21.6135 15.0953 21.6146 15.084 21.6155C15.0728 21.6163 15.0615 21.6169 15.0503 21.6176L15.0165 21.6197L14.9828 21.6215C14.9716 21.6221 14.9603 21.6224 14.9491 21.6228C14.9379 21.6232 14.9266 21.6238 14.9154 21.6241C14.9042 21.6244 14.8929 21.6245 14.8817 21.6247L14.8479 21.6252C14.8374 21.6253 14.827 21.6256 14.8164 21.6256H14.8142H14.7805H14.7468H14.713H14.6793H14.6456H14.6119H14.5781H14.5444H14.5107H14.4769H14.4432H14.4095H14.3758H14.3421H14.3083H14.2746H14.2409H14.2072H14.1734H14.1397H14.106H14.0723H14.0386H14.0048H13.9711H13.9374H13.9036H13.8699H13.8362H13.8025H13.7687H13.735H13.7013H13.6676H13.6338H13.6001H13.5664H13.5327H13.4989H13.4652H13.4315H13.3978H13.364H13.3303H13.2966H13.2629H13.2292H13.1954H13.1617H13.128H13.0943H13.0605H13.0268H12.9931H12.9593H12.9256H12.8919H12.8582H12.8244H12.7907H12.757H12.7233H12.6895H12.6558H12.6221H12.5884H12.5546H12.5209H12.4872H12.4535H12.4197H12.386H12.3523H12.3186H12.2848H12.2511H12.2174H12.1837H12.15H12.1162H12.0825H12.0488H12.0151H11.9813H11.9476H11.9139H11.8801H11.8464H11.8127H11.779H11.7452H11.7115H11.6778H11.6441H11.6103H11.5766H11.5429H11.5092H11.4755H11.4417H11.408H11.3743H11.3406H11.3068H11.2731H11.2394H11.2057H11.1719H11.1382H11.1045H11.0708H11.037H11.0033H10.9696H10.9359H10.9021H10.8684H10.8347H10.8009H10.7672H10.7335H10.6998H10.666H10.6323H10.5986H10.5649H10.5312H10.4975H10.4637H10.43H10.3963H10.3626H10.3288H10.2951H10.2614H10.2276H10.1939H10.1602H10.1265H10.0928H10.059H10.0253H9.99158H9.95787H9.92416H9.89042H9.8567H9.82297H9.78923H9.75551H9.68311V13.5443C9.70674 13.5646 9.73093 13.5846 9.75551 13.6045C9.76666 13.6135 9.77791 13.6224 9.78923 13.6313C9.8004 13.6401 9.81163 13.6489 9.82297 13.6576C9.83417 13.6662 9.84534 13.6747 9.8567 13.6832C9.86782 13.6916 9.87913 13.6998 9.89042 13.708C9.90156 13.7161 9.91285 13.7242 9.92416 13.7322C9.93533 13.7402 9.94653 13.7481 9.95787 13.756L9.99158 13.7791C10.0027 13.7866 10.014 13.7941 10.0253 13.8015L10.059 13.8235C10.0702 13.8308 10.0814 13.8379 10.0928 13.8451C10.1039 13.8521 10.1152 13.859 10.1265 13.866L10.1602 13.8865C10.1714 13.8932 10.1826 13.8999 10.1939 13.9066C10.2051 13.9131 10.2164 13.9196 10.2276 13.926L10.2614 13.9452L10.2951 13.9639L10.3288 13.9821C10.34 13.9881 10.3512 13.9942 10.3626 14.0001C10.3737 14.006 10.385 14.0117 10.3963 14.0175L10.43 14.0346L10.4637 14.0514L10.4975 14.0677C10.5087 14.0731 10.5199 14.0785 10.5312 14.0838L10.5649 14.0994L10.5986 14.1148L10.6323 14.1297L10.666 14.1445L10.6998 14.1589L10.7335 14.1729L10.7672 14.1867L10.8009 14.2002L10.8347 14.2135L10.8684 14.2263C10.8796 14.2306 10.8908 14.2349 10.9021 14.2391L10.9359 14.2514C10.9471 14.2555 10.9583 14.2597 10.9696 14.2637C10.9807 14.2677 10.9921 14.2715 11.0033 14.2754L11.037 14.2872L11.0708 14.2985C11.082 14.3022 11.0931 14.3061 11.1045 14.3097C11.1156 14.3134 11.127 14.3169 11.1382 14.3206L11.1719 14.3314L11.2057 14.3417L11.2394 14.3521L11.2731 14.362L11.3068 14.3719L11.3406 14.3814L11.3743 14.3909L11.408 14.4L11.4417 14.409L11.4755 14.4179L11.5092 14.4265L11.5429 14.4349L11.5766 14.4431L11.6103 14.4513L11.6441 14.4591L11.6778 14.4668L11.7115 14.4743L11.7452 14.4817L11.779 14.4889L11.8127 14.4959L11.8464 14.5028L11.8801 14.5094L11.9139 14.516L11.9476 14.5224L11.9813 14.5286L12.0151 14.5348L12.0488 14.5406L12.0825 14.5465L12.1162 14.5521L12.15 14.5576L12.1837 14.563L12.2174 14.5681L12.2511 14.5733L12.2848 14.5782L12.3186 14.583L12.3523 14.5878L12.386 14.5922L12.4197 14.5967L12.4535 14.601L12.4872 14.6051L12.5209 14.6092L12.5546 14.6131L12.5884 14.6169L12.6221 14.6207L12.6558 14.6241L12.6895 14.6276L12.7233 14.631L12.757 14.6341L12.7907 14.6373L12.8244 14.6403L12.8582 14.6431L12.8919 14.646L12.9256 14.6486L12.9593 14.6511L12.9931 14.6537L13.0268 14.656L13.0605 14.6582L13.0943 14.6605L13.128 14.6624L13.1617 14.6644L13.1954 14.6663L13.2292 14.668L13.2629 14.6697L13.2966 14.6713L13.3303 14.6727L13.364 14.6741L13.3978 14.6754L13.4315 14.6765L13.4652 14.6777L13.4989 14.6788L13.5327 14.6796L13.5664 14.6804L13.6001 14.6813L13.6338 14.6819L13.6676 14.6824L13.7013 14.683L13.735 14.6833L13.7687 14.6837L13.8025 14.684L13.8362 14.6841L13.8699 14.6842L13.9036 14.6842L13.9374 14.6841L13.9711 14.6839L14.0048 14.6837L14.0386 14.6835L14.0723 14.683L14.106 14.6826L14.1397 14.6821L14.1734 14.6814L14.2072 14.6807L14.2409 14.68L14.2746 14.6792L14.3083 14.6783L14.3421 14.6773L14.3758 14.6763L14.4095 14.6751L14.4432 14.674L14.4769 14.6728L14.5107 14.6714L14.5444 14.67L14.5781 14.6686L14.5946 14.6679L14.6119 14.6671L14.6456 14.6654L14.6793 14.6636L14.713 14.6618L14.7468 14.6597L14.7805 14.6577L14.8142 14.6554L14.8479 14.6531L14.8817 14.6506L14.9154 14.6481L14.9491 14.6454L14.9828 14.6427L15.0165 14.6398L15.0503 14.6368L15.084 14.6338L15.1177 14.6306L15.1515 14.6273L15.1852 14.624L15.2189 14.6206L15.2526 14.617L15.2863 14.6134L15.3201 14.6097L15.3538 14.6058L15.3875 14.602L15.4212 14.598L15.455 14.5939L15.4887 14.5898L15.5224 14.5855L15.5561 14.5812L15.5899 14.5769L15.6236 14.5724L15.6573 14.5679L15.6911 14.5632L15.7248 14.5585L15.7585 14.5538L15.7922 14.5489L15.826 14.544L15.8597 14.539L15.8934 14.5339L15.9271 14.5288L15.9608 14.5235L15.9946 14.5182L16.0283 14.5129L16.062 14.5075L16.0957 14.502L16.1295 14.4964L16.1632 14.4907L16.1969 14.485L16.2306 14.4793L16.2644 14.4734L16.2981 14.4675L16.3318 14.4615L16.3655 14.4555L16.3993 14.4494L16.433 14.4432L16.4667 14.437L16.5004 14.4306L16.5342 14.4242L16.5679 14.4178L16.6016 14.4113L16.6354 14.4047L16.6691 14.3981L16.7028 14.3914L16.7365 14.3846L16.7702 14.3778L16.804 14.3709L16.8377 14.3639L16.8714 14.3568L16.9051 14.3498L16.9389 14.3425L16.9726 14.3353L17.0063 14.328L17.04 14.3206L17.0737 14.3131L17.1075 14.3056L17.1412 14.2979L17.1749 14.2902L17.2087 14.2824L17.2424 14.2745L17.2761 14.2665L17.3098 14.2583L17.3434 14.2501V12.7695L17.3098 12.7862L17.2761 12.8028L17.2424 12.8193L17.2087 12.8357L17.1749 12.8519L17.1412 12.8679L17.1075 12.8838L17.0737 12.8995L17.04 12.9151L17.0063 12.9305L16.9726 12.9457L16.9389 12.9607L16.9051 12.9756L16.8714 12.9902L16.8377 13.0048L16.804 13.0191L16.7702 13.0333L16.7365 13.0473L16.7028 13.0611L16.6691 13.0747L16.6354 13.0881L16.6016 13.1014L16.5679 13.1144L16.5342 13.1273L16.5004 13.1399L16.4667 13.1524L16.433 13.1647L16.3993 13.1768L16.3655 13.1888L16.3318 13.2005L16.2981 13.212L16.2644 13.2233L16.2306 13.2345L16.1969 13.2455L16.1632 13.2562L16.1295 13.2668L16.0957 13.2772L16.062 13.2874L16.0283 13.2974L15.9946 13.3072L15.9608 13.3168L15.9271 13.3262L15.8934 13.3355L15.8597 13.3445L15.826 13.3534L15.7922 13.362L15.7585 13.3705L15.7248 13.3787L15.6911 13.3868L15.6573 13.3947L15.6236 13.4024L15.5899 13.4099L15.5561 13.4173L15.5224 13.4244L15.4887 13.4313L15.455 13.4381L15.4212 13.4447L15.3875 13.4511L15.3538 13.4573L15.3201 13.4633L15.2863 13.4691L15.2526 13.4747L15.2189 13.4802L15.1852 13.4855L15.1515 13.4906L15.1177 13.4955L15.084 13.5002L15.0503 13.5048L15.0165 13.5091L14.9828 13.5133L14.9491 13.5173L14.9154 13.5212L14.8817 13.5248L14.8479 13.5283L14.8142 13.5315L14.7805 13.5347L14.7468 13.5376L14.713 13.5404L14.6926 13.542L14.6793 13.5429L14.6456 13.5452L14.6119 13.5474L14.5781 13.5492L14.5444 13.5509L14.5107 13.5525L14.4769 13.5536L14.4432 13.5547L14.4095 13.5554L14.3758 13.5559L14.3421 13.5564C14.3308 13.5564 14.3196 13.5563 14.3083 13.5562L14.2746 13.5561L14.2409 13.5556L14.2072 13.5549L14.1734 13.554C14.1621 13.5537 14.1509 13.5531 14.1397 13.5527C14.1285 13.5522 14.1172 13.5518 14.106 13.5513L14.0723 13.5494L14.0386 13.5474L14.0048 13.5451L13.9711 13.5424C13.9598 13.5415 13.9485 13.5407 13.9374 13.5396C13.926 13.5386 13.9149 13.5374 13.9036 13.5362L13.8699 13.5329L13.8362 13.5289L13.8025 13.5249L13.7687 13.5204L13.735 13.5156C13.7237 13.514 13.7125 13.5124 13.7013 13.5106C13.69 13.5088 13.6788 13.5069 13.6676 13.505C13.6563 13.5032 13.645 13.5014 13.6338 13.4994C13.6225 13.4974 13.6114 13.4952 13.6001 13.4931C13.5889 13.491 13.5775 13.489 13.5664 13.4868C13.555 13.4846 13.5439 13.4821 13.5327 13.4797C13.5214 13.4774 13.5101 13.4751 13.4989 13.4727C13.4876 13.4702 13.4764 13.4675 13.4652 13.4649L13.4315 13.457C13.4202 13.4542 13.409 13.4513 13.3978 13.4485C13.3865 13.4456 13.3752 13.4427 13.364 13.4397C13.3527 13.4367 13.3415 13.4335 13.3303 13.4304C13.319 13.4272 13.3078 13.4241 13.2966 13.4208C13.2853 13.4174 13.2741 13.414 13.2629 13.4106C13.2516 13.4071 13.2403 13.4036 13.2292 13.4C13.2178 13.3964 13.2066 13.3926 13.1954 13.3889C13.1842 13.3851 13.1728 13.3813 13.1617 13.3774C13.1504 13.3735 13.1392 13.3694 13.128 13.3653C13.1167 13.3612 13.1054 13.3571 13.0943 13.3529C13.0829 13.3486 13.0717 13.3441 13.0605 13.3396C13.0493 13.3352 13.0379 13.3308 13.0268 13.3262C13.0154 13.3215 13.0043 13.3166 12.9931 13.3118C12.9818 13.307 12.9705 13.3022 12.9593 13.2972C12.948 13.2921 12.9368 13.2869 12.9256 13.2817C12.9143 13.2764 12.903 13.2711 12.8919 13.2658C12.8806 13.2603 12.8693 13.2547 12.8582 13.2491C12.8468 13.2434 12.8356 13.2376 12.8244 13.2317C12.8132 13.2258 12.8018 13.22 12.7907 13.2139C12.7793 13.2077 12.7682 13.2013 12.757 13.195C12.7457 13.1885 12.7344 13.1822 12.7233 13.1756C12.7119 13.1689 12.7007 13.1621 12.6895 13.1552C12.6782 13.1483 12.667 13.1412 12.6558 13.1341C12.6445 13.1269 12.6332 13.1197 12.6221 13.1123C12.6107 13.1048 12.5996 13.097 12.5884 13.0892C12.577 13.0814 12.5658 13.0734 12.5546 13.0654C12.5433 13.0572 12.532 13.0491 12.5209 13.0407C12.5095 13.0322 12.4984 13.0234 12.4872 13.0146C12.4758 13.0057 12.4646 12.9968 12.4535 12.9877C12.4422 12.9784 12.4308 12.9692 12.4197 12.9597C12.4083 12.95 12.3972 12.94 12.386 12.93C12.3746 12.9199 12.3634 12.9096 12.3523 12.8992C12.3409 12.8886 12.3297 12.8779 12.3186 12.867C12.3072 12.8559 12.2959 12.8448 12.2848 12.8335C12.2734 12.8218 12.2622 12.8098 12.2511 12.7979C12.2397 12.7856 12.2285 12.7731 12.2174 12.7605C12.206 12.7476 12.1947 12.7345 12.1837 12.7213C12.1723 12.7077 12.161 12.694 12.15 12.68C12.1385 12.6656 12.1272 12.6511 12.1162 12.6364C12.1048 12.6211 12.0935 12.6058 12.0825 12.5902C12.0711 12.5739 12.0598 12.5576 12.0488 12.541C12.0373 12.5236 12.0261 12.5061 12.0151 12.4884C12.0035 12.4698 11.9923 12.4509 11.9813 12.4319C11.9697 12.4119 11.9585 12.3916 11.9476 12.3711C11.936 12.3493 11.9248 12.3272 11.9139 12.305C11.9022 12.2812 11.891 12.2571 11.8801 12.2328C11.8685 12.2066 11.8572 12.1802 11.8464 12.1533C11.8345 12.1236 11.8234 12.0933 11.8127 12.0627C11.8008 12.0288 11.7895 11.9945 11.779 11.9595C11.7668 11.919 11.7555 11.8778 11.7452 11.836C11.7325 11.7838 11.7213 11.7306 11.7115 11.6764C11.697 11.596 11.6857 11.5134 11.6778 11.4286C11.6687 11.3306 11.6641 11.2297 11.6641 11.1258C11.6641 11.0219 11.6687 10.9209 11.6778 10.8229C11.6857 10.738 11.697 10.6554 11.7115 10.575C11.7213 10.5208 11.7325 10.4675 11.7452 10.4153C11.7555 10.3734 11.7668 10.3322 11.779 10.2917C11.7895 10.2568 11.8008 10.2224 11.8127 10.1884C11.8234 10.1579 11.8345 10.1276 11.8464 10.0978C11.8572 10.0709 11.8685 10.0445 11.8801 10.0183C11.891 9.99392 11.9022 9.96987 11.9139 9.94613C11.9248 9.92381 11.936 9.90172 11.9476 9.87996C11.9585 9.85944 11.9697 9.83911 11.9813 9.81906C11.9923 9.80002 12.0035 9.78118 12.0151 9.76258C12.0261 9.74483 12.0373 9.72731 12.0488 9.70997C12.0598 9.69337 12.0711 9.67699 12.0825 9.66075C12.0935 9.64515 12.1048 9.62978 12.1162 9.61452C12.1272 9.59979 12.1385 9.58526 12.15 9.57084C12.161 9.55692 12.1723 9.54318 12.1837 9.52957C12.1947 9.51632 12.206 9.50325 12.2174 9.49031C12.2285 9.47774 12.2397 9.46523 12.2511 9.45293C12.2622 9.44098 12.2734 9.42899 12.2848 9.41729C12.2959 9.40595 12.3072 9.39483 12.3186 9.38375C12.3297 9.37291 12.3409 9.36221 12.3523 9.3516C12.3634 9.34121 12.3746 9.33085 12.386 9.32069C12.3972 9.31075 12.4083 9.30078 12.4197 9.29104C12.4308 9.28157 12.4422 9.27233 12.4535 9.26307C12.4646 9.25397 12.4758 9.24498 12.4872 9.23607C12.4984 9.22728 12.5095 9.21852 12.5209 9.20995C12.532 9.20161 12.5433 9.19346 12.5546 9.18531C12.5658 9.17725 12.577 9.16935 12.5884 9.16148C12.5996 9.15373 12.6107 9.14591 12.6221 9.13835C12.6332 9.13096 12.6445 9.12379 12.6558 9.1166C12.667 9.10946 12.6782 9.10237 12.6895 9.09543C12.7007 9.08857 12.7119 9.08177 12.7233 9.07507C12.7344 9.06849 12.7457 9.06211 12.757 9.0557C12.7682 9.04934 12.7793 9.04296 12.7907 9.03677C12.8018 9.03069 12.8132 9.02481 12.8244 9.01891C12.8356 9.01305 12.8468 9.00726 12.8582 9.00155C12.8693 8.99592 12.8806 8.99035 12.8919 8.98486C12.903 8.97945 12.9143 8.97419 12.9256 8.96893C12.9368 8.96372 12.948 8.95845 12.9593 8.95339C12.9705 8.9484 12.9818 8.94361 12.9931 8.93877C13.0043 8.93393 13.0154 8.92905 13.0268 8.92438C13.0379 8.91979 13.0493 8.91539 13.0605 8.91094C13.0717 8.90649 13.0829 8.90201 13.0943 8.89769C13.1054 8.89347 13.1167 8.88941 13.128 8.88529C13.1392 8.8812 13.1504 8.87709 13.1617 8.87311C13.1728 8.86922 13.1842 8.86544 13.1954 8.86166C13.2066 8.85791 13.2178 8.85415 13.2292 8.85052C13.2403 8.84693 13.2516 8.84346 13.2629 8.83999C13.2741 8.83654 13.2853 8.83313 13.2966 8.82979L13.3303 8.82016C13.3415 8.81703 13.3527 8.81384 13.364 8.81081C13.3752 8.80782 13.3865 8.80496 13.3978 8.80208C13.409 8.79922 13.4202 8.79631 13.4315 8.79356L13.4652 8.78564C13.4764 8.78304 13.4876 8.78037 13.4989 8.77788C13.5101 8.77542 13.5214 8.77312 13.5327 8.77077C13.5439 8.76842 13.555 8.76595 13.5664 8.76371C13.5775 8.7615 13.5889 8.75951 13.6001 8.75741C13.6114 8.75531 13.6225 8.7531 13.6338 8.75109C13.645 8.7491 13.6563 8.74736 13.6676 8.74549C13.6788 8.74361 13.69 8.74168 13.7013 8.73991L13.735 8.7349L13.7687 8.73009L13.8025 8.72563L13.8362 8.72155L13.8699 8.71763L13.9036 8.71424C13.9149 8.71312 13.926 8.71189 13.9374 8.71085C13.9485 8.70982 13.9598 8.70903 13.9711 8.70811L14.0048 8.70542L14.0386 8.7031L14.0723 8.70108L14.106 8.6992C14.1172 8.69864 14.1285 8.69828 14.1397 8.69783C14.1509 8.69738 14.1621 8.69682 14.1734 8.69646L14.2072 8.69559L14.2409 8.69486L14.2746 8.69436L14.3083 8.69425C14.3196 8.69422 14.3308 8.69408 14.3421 8.69413L14.3758 8.69455L14.4095 8.69506L14.4432 8.69579L14.4769 8.69688L14.5107 8.69797L14.5444 8.69954L14.5781 8.70125L14.6119 8.70307L14.6456 8.70531L14.6793 8.70757L14.6926 8.70847L14.713 8.71009L14.7468 8.71278L14.7805 8.71569L14.8142 8.71877L14.8479 8.72199L14.8817 8.72544L14.9154 8.72905L14.9491 8.7328L14.9828 8.73675L15.0165 8.74089L15.0503 8.74518L15.084 8.74966L15.1177 8.75436L15.1515 8.75918L15.1852 8.76419L15.2189 8.76943L15.2526 8.77483L15.2863 8.78037L15.3201 8.78617L15.3538 8.79214L15.3875 8.79827L15.4212 8.80457L15.455 8.81109L15.4887 8.81778L15.5224 8.82467L15.5561 8.83175L15.5899 8.83904L15.6236 8.84651L15.6573 8.85413L15.6911 8.86197L15.7248 8.87003L15.7585 8.87826L15.7922 8.88666L15.826 8.89529L15.8597 8.90411L15.8934 8.91309L15.9271 8.92231L15.9608 8.93171L15.9946 8.94129L16.0283 8.95109L16.062 8.96109L16.0957 8.97128L16.1295 8.98164L16.1632 8.99219L16.1969 9.00297L16.2306 9.01395L16.2644 9.02512L16.2981 9.03649L16.3318 9.04803L16.3655 9.05976L16.3993 9.07174L16.433 9.08389L16.4667 9.09621L16.5004 9.10876L16.5342 9.1215L16.5679 9.13443L16.6016 9.14754L16.6354 9.16084L16.6691 9.17433L16.7028 9.18803L16.7365 9.20191L16.7702 9.216L16.804 9.23025L16.8377 9.2447L16.8714 9.25931L16.9051 9.27413L16.9389 9.28908L16.9726 9.30425L17.0063 9.3196L17.04 9.33511L17.0737 9.35079L17.1075 9.36667L17.1412 9.38268L17.1749 9.39886L17.2087 9.41522L17.2424 9.43174L17.2761 9.4484L17.3098 9.46522L17.3434 9.48208V8.00044L17.3098 7.99215L17.2761 7.98403L17.2424 7.97602L17.2087 7.9681L17.1749 7.96028L17.1412 7.95258L17.1075 7.94494L17.0737 7.93738L17.04 7.92993L17.0063 7.92251L16.9726 7.9152L16.9389 7.90798L16.9051 7.90076L16.8714 7.89367L16.8377 7.88664L16.804 7.87967L16.7702 7.87276L16.7365 7.86592L16.7028 7.85915L16.6691 7.85246L16.6354 7.84585L16.6016 7.83924L16.5679 7.83275L16.5342 7.8263L16.5004 7.81995L16.4667 7.81365L16.433 7.8074L16.3993 7.80124L16.3655 7.79514L16.3318 7.78909L16.2981 7.78313L16.2644 7.77722L16.2306 7.77137L16.1969 7.76563L16.1632 7.75992L16.1295 7.75429L16.0957 7.74872L16.062 7.74323L16.0283 7.73782L15.9946 7.73245L15.9608 7.72718L15.9271 7.72195L15.8934 7.71682L15.8597 7.71176L15.826 7.70674L15.7922 7.70185L15.7585 7.697L15.7248 7.69224L15.6911 7.68756L15.6573 7.68295L15.6236 7.67841L15.5899 7.67393L15.5561 7.66959L15.5224 7.66528L15.4887 7.66105L15.455 7.65691L15.4212 7.65287L15.3875 7.64893L15.3538 7.64503L15.3201 7.64125L15.2863 7.63753L15.2526 7.63394L15.2189 7.63039L15.1852 7.627L15.1515 7.62364L15.1177 7.62039L15.084 7.61723L15.0503 7.61421L15.0165 7.61124L14.9828 7.60838L14.9491 7.60564L14.9154 7.60298L14.8817 7.60049L14.8479 7.59799L14.8142 7.59573L14.7805 7.59346L14.7468 7.59141L14.713 7.5894L14.6793 7.58755L14.6456 7.58579L14.6119 7.58416L14.5946 7.58335L14.5781 7.58265L14.5444 7.58125L14.5107 7.57985L14.4769 7.57845L14.4432 7.57727L14.4095 7.57613L14.3758 7.57495L14.3421 7.57394L14.3083 7.57299L14.2746 7.57206L14.2409 7.5712L14.2072 7.5705L14.1734 7.56983L14.1397 7.56913L14.106 7.56868L14.0723 7.56823L14.0386 7.56778L14.0048 7.5675L13.9711 7.56733L13.9374 7.56714L13.9036 7.56705L13.8699 7.56711L13.8362 7.56716L13.8025 7.56728L13.7687 7.56759L13.735 7.56792L13.7013 7.56826L13.6676 7.56885L13.6338 7.56941L13.6001 7.56999L13.5664 7.57083L13.5327 7.57167L13.4989 7.57251L13.4652 7.57361L13.4315 7.57473L13.3978 7.57584L13.364 7.57722L13.3303 7.57862L13.2966 7.57999L13.2629 7.58164L13.2292 7.58332L13.1954 7.58497L13.1617 7.58691L13.128 7.58887L13.0943 7.59083L13.0605 7.59307L13.0268 7.59533L12.9931 7.5976L12.9593 7.60018L12.9256 7.60273L12.8919 7.60536L12.8582 7.60821L12.8244 7.61104L12.7907 7.61404L12.757 7.6172L12.7233 7.62037L12.6895 7.62373L12.6558 7.62722L12.6221 7.6307L12.5884 7.63448L12.5546 7.63826L12.5209 7.64212L12.4872 7.64627L12.4535 7.65038L12.4197 7.65472L12.386 7.65917L12.3523 7.66363L12.3186 7.66839L12.2848 7.67317L12.2511 7.6781L12.2174 7.68325L12.1837 7.68838L12.15 7.69381L12.1162 7.69932L12.0825 7.70495L12.0488 7.71078L12.0151 7.71663L11.9813 7.72279L11.9476 7.72903L11.9139 7.73542L11.8801 7.742L11.8464 7.7486L11.8127 7.75558L11.779 7.76255L11.7452 7.76977L11.7115 7.77714L11.6778 7.78464L11.6441 7.7924L11.6103 7.80018L11.5766 7.80836L11.5429 7.81653L11.5092 7.82502L11.4755 7.83361L11.4417 7.84246L11.408 7.85148L11.3743 7.86066L11.3406 7.8701L11.3068 7.87967L11.2731 7.88956L11.2394 7.8995L11.2057 7.90983L11.1719 7.92022L11.1382 7.93102C11.127 7.93464 11.1156 7.93816 11.1045 7.94183L11.0708 7.95312C11.0595 7.95687 11.0482 7.96056 11.037 7.9644L11.0033 7.97616L10.9696 7.98792C10.9583 7.99195 10.9471 7.99612 10.9359 8.00021C10.9246 8.0043 10.9133 8.00833 10.9021 8.0125L10.8684 8.0253C10.8571 8.02958 10.8458 8.03378 10.8347 8.03812L10.8009 8.05145L10.7672 8.06489L10.7335 8.07875L10.6998 8.09281L10.666 8.1072L10.6323 8.12193L10.5986 8.13688L10.5649 8.15231L10.5312 8.16788C10.5199 8.1732 10.5087 8.17863 10.4975 8.184L10.4637 8.20033L10.43 8.2171L10.3963 8.23424C10.385 8.24003 10.3737 8.24577 10.3626 8.25162C10.3512 8.25756 10.34 8.26361 10.3288 8.26963L10.2951 8.28788L10.2614 8.30656C10.25 8.31292 10.2388 8.31933 10.2276 8.32577C10.2164 8.33223 10.2051 8.33868 10.1939 8.34523C10.1826 8.35186 10.1714 8.35858 10.1602 8.3653C10.1489 8.37211 10.1377 8.37897 10.1265 8.38586C10.1152 8.3928 10.1039 8.39974 10.0928 8.40674C10.0814 8.41388 10.0702 8.42111 10.059 8.4283L10.0253 8.45034C10.014 8.45782 10.0027 8.46524 9.99158 8.4728L9.95787 8.49592C9.94653 8.50379 9.93533 8.51172 9.92416 8.51964C9.91285 8.52768 9.90156 8.53577 9.89042 8.54392C9.87913 8.55215 9.86782 8.56035 9.8567 8.56867C9.84534 8.57718 9.83417 8.58575 9.82297 8.59434C9.81163 8.60305 9.8004 8.61181 9.78923 8.62061C9.77791 8.62951 9.76666 8.63847 9.75551 8.64749V8.64746Z" fill="#7A838D"/>
</g>
</svg>
