<svg width="40" height="11" viewBox="0 0 40 11" fill="none" xmlns="http://www.w3.org/2000/svg">
<g opacity="0.54">
<path fill-rule="evenodd" clip-rule="evenodd" d="M3.69893 0.00186191C4.05628 -0.000275927 5.11832 -0.095929 5.56818 1.42235C5.87121 2.44507 6.35392 4.12035 7.01631 6.44817H7.28607C7.99642 3.99402 8.4844 2.31874 8.75 1.42235C9.20454 -0.111744 10.3409 0.00189197 10.7955 0.00189197L14.3024 0.00189634V10.911H10.728V4.48207H10.4883L8.49581 10.911H5.80657L3.81404 4.4773H3.57435V10.911H0V0.00189634L3.69893 0.00186191ZM19.4351 0.00189634V6.43558H19.7202L22.144 1.14521C22.6144 0.0924083 23.6172 0.00189634 23.6172 0.00189634H27.0761V10.911H23.4271V4.4773H23.142L20.7658 9.76767C20.2953 10.8157 19.245 10.911 19.245 10.911H15.7861V0.00189634H19.4351ZM39.6887 5.18597C39.1797 6.62835 37.5812 7.66134 35.8115 7.66134H31.9848V10.911H28.5148V5.18597H39.6887Z" fill="#7A838D"/>
<path fill-rule="evenodd" clip-rule="evenodd" d="M35.979 0H28.333C28.515 2.42873 30.6065 4.50789 32.7717 4.50789H39.9299C40.343 2.48932 38.921 0 35.979 0Z" fill="#7A838D"/>
</g>
</svg>
