<svg width="40" height="13" viewBox="0 0 40 13" fill="none" xmlns="http://www.w3.org/2000/svg">
<g opacity="0.54">
<path d="M16.0163 0.386719L13.9834 12.3658H17.2346L19.2692 0.386719H16.0163Z" fill="#7A838D"/>
<path d="M11.2573 0.400957L8.07291 8.57035L7.7334 7.33684C7.1054 5.85058 5.32256 3.71607 3.22949 2.37088L6.14123 12.3607L9.58146 12.3549L14.7017 0.398438L11.2573 0.400957Z" fill="#7A838D"/>
<path d="M6.49914 1.25446C6.31015 0.524762 5.76243 0.307281 5.08258 0.28125H0.0418113L0 0.519724C3.92273 1.4753 6.51837 3.77774 7.59543 6.54622L6.49914 1.25446Z" fill="#7A838D"/>
<path d="M25.8585 2.68198C26.9222 2.66518 27.6932 2.89862 28.2919 3.14045L28.5854 3.279L29.0253 0.682664C28.3814 0.439992 27.3721 0.179688 26.1127 0.179688C22.8999 0.179688 20.6354 1.8045 20.6179 4.13297C20.597 5.85351 22.231 6.81412 23.4652 7.38763C24.7321 7.97542 25.1569 8.34908 25.1511 8.87389C25.141 9.6758 24.1409 10.0436 23.2068 10.0436C21.9048 10.0436 21.2133 9.86305 20.1454 9.41633L19.7265 9.22488L19.269 11.906C20.03 12.2411 21.434 12.5291 22.8916 12.5442C26.3092 12.5442 28.5302 10.9387 28.5536 8.45068C28.5679 7.08954 27.7007 6.05084 25.8217 5.19854C24.6844 4.64267 23.9887 4.2732 23.9954 3.71228C23.9954 3.21434 24.5858 2.68198 25.8585 2.68198Z" fill="#7A838D"/>
<path d="M37.3694 0.398438H34.8573C34.0771 0.398438 33.4968 0.61172 33.1539 1.39264L28.3264 12.3708H31.7407C31.7407 12.3708 32.2976 10.8946 32.4239 10.5713C32.7977 10.5713 36.115 10.5764 36.5875 10.5764C36.6845 10.9945 36.9839 12.3708 36.9839 12.3708H40.0001L37.3694 0.398438ZM33.3597 8.11943C33.6272 7.43172 34.655 4.77157 34.655 4.77157C34.6374 4.80432 34.92 4.07882 35.0881 3.6279L35.3072 4.66073C35.3072 4.66073 35.9302 7.52073 36.0607 8.11943H33.3597Z" fill="#7A838D"/>
</g>
</svg>
